<?xml version="1.0" encoding="UTF-8"?>
<svg id="Layer_1" xmlns="http://www.w3.org/2000/svg" version="1.1" viewBox="0 0 224.33 324.96">
  <!-- Generator: Adobe Illustrator 30.1.0, SVG Export Plug-In . SVG Version: 2.1.1 Build 136)  -->
  <defs>
    <style>
      .st0 {
        fill: #e3adba;
      }

      .st1 {
        fill: #f8d3d7;
      }

      .st2 {
        fill: #bc8caa;
      }

      .st3 {
        fill: #ecb9c2;
      }

      .st4 {
        fill: #7b395a;
      }

      .st5 {
        fill: #f9d4d9;
      }

      .st6 {
        fill: #2d2c2b;
      }

      .st7 {
        fill: #f4d5e7;
      }

      .st8 {
        fill: #e0c8c9;
      }

      .st9 {
        fill: #e4abb9;
      }

      .st10 {
        fill: #f7d0d5;
      }

      .st11 {
        fill: #efbbc6;
      }

      .st12 {
        fill: #e9e9e8;
      }

      .st13 {
        fill: #e7b1bd;
      }

      .st14 {
        fill: #a56580;
      }

      .st15 {
        fill: #ddb0cb;
      }

      .st16 {
        fill: #b07f8d;
      }

      .st17 {
        fill: #b18d93;
      }

      .st18 {
        fill: #51293e;
      }

      .st19 {
        fill: #824660;
      }

      .st20 {
        fill: #9e7676;
      }

      .st21 {
        fill: #dccbca;
      }

      .st22 {
        fill: #f0c5cd;
      }

      .st23 {
        fill: #f0e0ce;
      }

      .st24 {
        fill: #eedbdb;
      }

      .st25 {
        fill: #c88a9e;
      }

      .st26 {
        fill: #aa8790;
      }

      .st27 {
        fill: #c29fa4;
      }

      .st28 {
        fill: #8d506c;
      }

      .st29 {
        fill: #8a536d;
      }

      .st30 {
        fill: #ebb6c1;
      }

      .st31 {
        fill: #e1b1cd;
      }

      .st32 {
        fill: #e2a8b7;
      }

      .st33 {
        fill: #84455e;
      }

      .st34 {
        fill: #e1c9c0;
      }

      .st35 {
        fill: #e7b3be;
      }

      .st36 {
        fill: #f6f3f2;
      }

      .st37 {
        fill: #803f5d;
      }

      .st38 {
        fill: #e7b3bf;
      }

      .st39 {
        fill: #996077;
      }

      .st40 {
        fill: #7b3e57;
      }

      .st41 {
        fill: #e6dcda;
      }

      .st42 {
        fill: #e7b0bc;
      }

      .st43 {
        fill: #c17394;
      }

      .st44 {
        fill: #cb99b6;
      }

      .st45 {
        fill: #7d3c5e;
      }

      .st46 {
        fill: #cd7ca5;
      }

      .st47 {
        fill: #d9b0c9;
      }

      .st48 {
        fill: #7c3a5b;
      }

      .st49 {
        fill: #c69faa;
      }

      .st50 {
        fill: #dba8c4;
      }

      .st51 {
        fill: #c5799a;
      }

      .st52 {
        fill: #e4dad8;
      }

      .st53 {
        fill: #161011;
      }

      .st54 {
        fill: #f8eaeb;
      }

      .st55 {
        fill: #895a6a;
      }

      .st56 {
        fill: #dfcab6;
      }

      .st57 {
        fill: #c294b2;
      }

      .st58 {
        fill: #e7d8d6;
      }

      .st59 {
        fill: #eedfde;
      }

      .st60 {
        fill: #834864;
      }

      .st61 {
        fill: #742f53;
      }

      .st62 {
        fill: #fae9eb;
      }

      .st63 {
        fill: #793357;
      }

      .st64 {
        fill: #6d2e4e;
      }

      .st65 {
        fill: #ea9ec1;
      }

      .st66 {
        fill: #6a244a;
      }

      .st67 {
        fill: #f9e3e5;
      }

      .st68 {
        fill: #b47b97;
      }

      .st69 {
        fill: #ebbac4;
      }

      .st70 {
        fill: #a89093;
      }

      .st71 {
        fill: #ebb8c3;
      }

      .st72 {
        fill: #bc8b98;
      }

      .st73 {
        fill: #8a4965;
      }

      .st74 {
        fill: #ce91a3;
      }

      .st75 {
        fill: #9d6a77;
      }

      .st76 {
        fill: #d7bfcd;
      }

      .st77 {
        fill: #763754;
      }

      .st78 {
        fill: #996978;
      }

      .st79 {
        fill: #e5b7d3;
      }

      .st80 {
        fill: #f7f1e1;
      }

      .st81 {
        fill: #965973;
      }

      .st82 {
        fill: #ddcece;
      }

      .st83 {
        fill: #753155;
      }

      .st84 {
        fill: #e3b2bc;
      }

      .st85 {
        fill: #743051;
      }

      .st86 {
        fill: #9c5f79;
      }

      .st87 {
        fill: #874662;
      }

      .st88 {
        fill: #804a61;
      }

      .st89 {
        fill: #dbcbca;
      }

      .st90 {
        fill: #b78492;
      }

      .st91 {
        fill: #6b3451;
      }

      .st92 {
        fill: #986e5d;
      }

      .st93 {
        fill: #763653;
      }

      .st94 {
        fill: #c38eab;
      }

      .st95 {
        fill: #a26a7e;
      }

      .st96 {
        fill: #ecbfc7;
      }

      .st97 {
        fill: #9b5376;
      }

      .st98 {
        fill: #7c3658;
      }

      .st99 {
        fill: #e7b1be;
      }

      .st100 {
        fill: #7d3d5c;
      }

      .st101 {
        fill: #dfa4b6;
      }

      .st102 {
        fill: #7b3b5a;
      }

      .st103 {
        fill: #ecbdc7;
      }

      .st104 {
        fill: #6d2b4e;
      }

      .st105 {
        fill: #8e4f6d;
      }

      .st106 {
        fill: #783856;
      }

      .st107 {
        fill: #c091af;
      }

      .st108 {
        fill: #c091ae;
      }

      .st109 {
        fill: #efe2ce;
      }

      .st110 {
        fill: #f5b7d2;
      }

      .st111 {
        fill: #e3a8b8;
      }

      .st112 {
        fill: #f3cce3;
      }

      .st113 {
        fill: #753256;
      }

      .st114 {
        fill: #915471;
      }

      .st115 {
        fill: #f6f1f0;
      }

      .st116 {
        fill: #f8f4ed;
      }

      .st117 {
        fill: #6b404f;
      }
    </style>
  </defs>
  <path class="st104" d="M54.39,65.62c-1.26-3.66-1.58-7.93,1-11,1.75-4.88-.48,15.57-1,11Z"/>
  <path class="st76" d="M219.39,157.62c-1.65,2.84-4.76-1.82-7,4-.08-1.14-.14-2.31.13-3.93l6.87-.07Z"/>
  <g>
    <path class="st61" d="M60.27,166.61c.9,3.14-5.22,6.33-7.78,5.2.99,1.18,1.73,2.4,2.22,3.66-2.59,4.82-5.22,8.53-7.91,11.12l.53,1.38c-3.44,2.44-3.91,4.63-1.41,6.58-3.04,4.67-5.85,9.51-8.44,14.53l-1.38.54c2.07,1.94,2.32,2.68-.89,2.91-.95,19.02,19.55,34.13,36.15,21.8,3,.28,3.4,1.85,1.82,4.16.12,2.27-1.32,3.75-4.32,4.44l-11.89.53c-.59,1.05-1.79,1.45-3.59,1.19.73,4.43-3.74,2.95-4.08-1.38-5.17-2.35-9.73-5.42-13.67-9.2l.77-2.34c-4.45,0-5.37-7.42-5.73-11.34-.39-4.22-.45-13.31,3.7-14.84-1.46-1.27-1.2-3.22.79-5.82.1-2.49-.64-2.1-2.23,1.18-5.47,0-10.97-.09-16.51-.26l-1.05.81c2.31,1.94,3.21,3.77,2.71,5.5l-.28,2.29c-3.42,1.24-5.58,3.07-6.48,5.5,5.36.23,7.25,6.66,1.84,5.03.16,1.78-.84,3.3-3.01,4.56l-2.74,3.59c5.55-1.94,6.16,1.37,1.82,9.92,2.15,4.53,1.88,8.26-.8,11.18l-3.14,2.61c.13.72.42,1.32,1.01,1.31,3.1-.04,6.58-.78,9.64-1.44,3.88.98,3.71,3.43,2.11,6.53,3.56-1.29,6.66.09,6,4.15,5.13-4.1,8.26-2.28,9.39,5.46,3.26-2.77,6.38-5.68,9.35-8.74l3.31,1.89c2.71-4.35,5.09-5.44,7.12-3.28,2.78-.12,2.73,1.03.26,2.27.85,1.73-.58,3.19-2.1,3.84-3.76,1.7-2.5,5.02-6.54,6.16-1.56.44-3.09-2.03-4.42-1.88-2.79.32-3.91,4.27-6.45,5.44-4.72,2.17-4.66-6.86-6.15-7.65-.05-.03-10.55,4.05-10.08.69l.33-2.32c.11-.78-6.36-.32-5.7-2.82l1.15-4.39c-4.51,1.46-9.45.91-13.51-1.78l6.19-10.06c-6.14-6.11,5.43-12.34-5.75-11.55,1.1-3.9,3.47-8.08,5.77-12.03.41-.7,3.64-1.18,1.84-2.52-.99-.74-4.95-.07-4.5-2.07,1.18-5.32,6.69-7.32,10.08-10.96-1.24-1.97-4.1-5.78-2.73-7.28,6.16-3.25,12.89-1.5,19.51-2-.39-1.88-.75-3.79.16-4.52,1.26-1.01,3.49.02,4.96-.45,9.11-2.85,7.53-9.69,12.81-15.1-.57-1.36-2.29-2.41-1.9-3.78.81-2.86,4.17-3.31,6.15-4.41.9-2.82,8.24-5.23,7.69-1.71Z"/>
    <path class="st66" d="M107.39,324.62c-6.84.45-14.14.9-21,0-9.14-.2-18.39-1.13-27.45-4.46-6.8-2.5-11.68-8.3-9.49-15.64l2.94-9.9c-.5-1.55-.39-1.92.33-1.09-5.88.26-3.48-5.76.66-2.96-.78-2.15,1.99-3.43,3.79-3.35,2.16.1,2.96,2.81,1.13,3.49l.51,2.02c-11.94,21.36.63,24.3,21.37,26.88,14.91,1.86,37.52,2.93,49.87-5.88-.86-.33-.83-.67.06-1.01-1.07-2.3-.52-6.21,1.28-8.02-1.14-3.35-.83-4.4.93-3.16,4.9,1.27,3.63,9.77,2.7,14.01,15.82,2.87,30.9,1.38,46.55-1.3,6.39-1.1,9.18-3.34,12.49-8.53-1.46-3.29-2.94-6.61-4.46-9.98l.71-2.27c-2.92.42-3.6-1.41-3.01-3.97-2.44-.69-3.04-.87-.81-2.6l1.87-2.35c-4.8-4.33,1.69-8.54,4.25-2.98,1.09-1.66,2.04-2.23,2.86-1.73.38.91,2.96,1.21,2.97,2.4,0,1.25-5.23,4.93-8.17,7.92,3.51,1.03,3.95,4.33,5.18,7.5,1.83,4.71,2.91,8.83.31,13.74-8.22,15.5-61.11,8.76-64.58,9.27-8.09,1.18-15.3,5.03-23.81,3.96Z"/>
    <path class="st92" d="M189.65,53.73c.89.21.9.54.06.96-.11,3.09-8.06,6.62-10.74,4.52-1.01,3.42-2.56,5.29-4.67,5.6-2.99,4.68-5.96-4.19-.84-4.17-1.62-5.01.14-11.57,3.96-15.18-2.89-1.57.51-9.95,3.12-10.77-1.6-3.55-1-5.88,1.8-6.99-.87-4.93-.29-10.15,1.75-15.66,1.63-1.27,2.08-3.12,1.36-5.55-1.26.1-2.55-.44-3.86-1.62l-3.3-.05c-.51,2.72-2.19,5.4-5.04,8.02l-4.61,8.32-2.54.75c1.9,2,1.07,2.9-1.5,2.71,1.11,2.65-2.67,9.27-5.69,9.02-.05.89-.29.84-.7-.05-1.37,1.14-1.62.48-.73-1.98,4.42-9.47,9.91-18.72,16.58-27.24,2.03-2.6,4.06-4.04,6.84-3.96s5.89.31,6.86,3.85c1.86,6.85-.19,13.91-1.87,20.72l-4.58,18.58c-1.08,4.39-1.49,8.27.75,12.44,2.68-2.32,5.31-1.73,7.57-2.29Z"/>
    <path class="st113" d="M195.48,279.83c-.23.11-.74.3-.7.52.09.51.72,1.11.92,1.8.27.91-1.17.88-1.82.7-.48-.13-.77-.93-1.26-1.3-.27-.98-1.18-1.63-2.74-1.95-3.68-2.47-5.15-5.31-4.41-8.52-2.04-4.89-3.47-10.01-4.27-15.35l1.47-2.22c-2.95-3.99-3.03-6.97-.24-8.92l-4.43-5.99.29-2.33c-1.43-1.58-1.02-3.46,1.25-5.64-1.03-1.21-1.14-2.9-.88-4.46-1.25-2.15-.77-4.37,1.54-5.47-.79-3.02-.37-4.06,1.26-3.1,3.05.96,3.55,8.07,3.53,11.26-5.3,16.55,9.01,9.25,13.06-.65.8-3.71,1.93-7.27,3.41-10.68-3.04-1.37-4.23-6.53-1.83-8.94-.24-.89.06-1.08.87-.6,4.16,6.7,5.03,13.9,1.83,21.84-2.43,6.04-7.44,11.57-14.9,14.07-.67,1.41,1.81,3.14,1.61,4.18-.81.9-2.5,1.26-2.63,2.19-.42,3.08,2.73,4.12,1.73,6.43-.21.49-1.6,1.26-1.44,1.85l4.24,15.39c.54,1.95,3.69,3.86,4.53,5.89Z"/>
    <path class="st101" d="M182.37,180.86c1.18-.46,2.25.2,3.2,1.99,2.21,5.79,4.76,10.1,7.66,12.94.91.67,2.84.55,3.13,1.38.5,1.43-.82,2.17-2.06,3.28,3.55,1.86,4.57,4.91,6.21,7.56l-.87.6c-2.38.55-4.69-1.1-6.92-4.94l-2.5-.22c-1.85,1.54-6.16,1.94-8.61,1.29-3.92.81-4.81-3.15-3.36-6.78-1.8-2.56-1.65-4.92.44-7.08-4.57-5.67-4.38-9.22.55-10.64l1.14.64c1.2-.92,1.87-.92,1.99,0Z"/>
    <path class="st19" d="M219.39,157.62c-4.69-.23-7.02,1.1-7,4,.26,3.91-1.81,8.19-5.45,10.69-.82.56-2.53-2.3-3.49-1.2-.67.76-2.21,1.78-3.06,2.41-1.05,1.69-1.94,1.17-1.97-.85-4.31-1.19-.17-6.98,3.64-5.59.44-2.27,1.52-3.39,3.24-3.37,1.72,1.47,2.75.76,3.11-2.13-.72-7.52,1.95-10.14,8.01-7.86,1.69,1.55,2.08-.18,1.15-5.17-3.4.76-5.29-7.64-2.26-9.75,3.11.3,4.74-.82,4.89-3.37-2.62-.23-5.07-4.37-3.9-6.92-4.78-1.23-8.01-6.99-1.15-9.09-1.31-1.11-1.86-2.37-1.65-3.78-.76-.25-.71-.52.08-.81,3.56.04,7.6,1.82,9.06,5.28l-5.75,4.49c3.1,3.15,9.57,12.62,6.76,16.22-1.19,1.53-4.32.84-5.35,2.49,2.1,4.79,3.47,10.23,1.1,14.31Z"/>
    <path class="st42" d="M63.48,148.35c-1.59.47-2.27-.52-3.09-1.73.42-.73,1.63-1.52,2.29-1.97,3.11-6.11-.2-10.92-4.29-15.46l.92-1.42c3.27-2.01,13.59-2.63,11.8,3.47,2.24.99,3.17,3.13,2.77,6.43l1.07.94c3.89-1.83,5.92,1.9,2.88,4.51,2.93,6.35-4.81,8.67-9.79,5.83-2.02.6-3.55.41-4.57-.59Z"/>
    <path class="st85" d="M111.39,22.62c5.01,4.59,4.49,12.66,2.18,19.15l4.59-3.06c2.61-1.74,6.3,4.11,10.24,2.92,1.82-.29,1.98.43,1.15,1.98.9.22.91.56.09,1.03-2.64,1.08-5.01,1.34-7.11.8.96,3.44.84,6.5-.36,9.19.1.89-.13.88-.65.07-1.05,1.64-1.32,4.91,1.12,3.82l-1.01,1.88c1.75,3.52-2.17,5.49-3.82,1.9-.61-3.46-1.34-7-2.17-10.63l.63-5.4c-3.7,2.92-6.35,3.01-7.94.25,1.34-6.31,2.11-12.64,2.3-18.96l.66-.95c-5.32,0-5.74-5.96.08-3.96Z"/>
    <path class="st48" d="M55.33,264.71c1.53,1.39,1.74,3.66.62,6.8.41,2.47-.14,4.17-1.66,5.1,4.17,1.51.67,5.15-1.83,7.03l2.43,3.15c-1.3,1.8-1.81,3.07-1.52,3.79-1.13.44-1.81,1.21-3.06,1.52,1.17.92,1.73.59,2.37.74.36.08.94.35.75,1.16-.08.34-.7.45-1.05.63.08-2.62-4.17,2.1-5.97-1.55-.68-1.38,2.97-3.39,2.9-3.96-.07-.62-4.06-1.23-3.96-3.98.03-.76.76-2.44,1.6-2.69,3.34-.98,1.12-3.99,1.95-5.24,1.86-2.81,3.29-4.12,1.77-7.93-.59-1.47,1.25-4.04.71-5.64s.46-3.55,2.1-3.84c2.84-.56,4.6,3.62,1.85,4.94Z"/>
    <path class="st73" d="M61.29,83.66c5.41-.14,8.3,1.26,8.65,4.18,10.05,4.31,6.57,13.81-2.21,5.75-3.38,2.79-3.9,5.51-1.56,8.18-.05,1.4-.5,2.7-1.35,3.9,2.25.41,3.02,1.44,1.38,3.26-1.37,1.49-2.64,2.39-3.81,2.68-.48-1.41-3.04-3.08-2.61-4.81.86-2.61.5-4.66-1.41-6.47l5.34-10.9c-1.73-1.69-3.82-2.63-5.42-3.99-1.61-.8-1.52-1.47.28-2.01.52-2.01,2.5-2.26,2.72.22Z"/>
    <path class="st63" d="M86.39,23.62c2.19,1.02,1.23,2.8-.88,2.73-2.96,1.86-4.84-1.64-5.1-4.37-1.15,1.01-2.55,1.96-4.05,1.97.5,2.44-.22,4.74-2.17,6.91-.37,6.37-3.97,7.65-10.82,3.84.45,2.59-.15,4.22-1.8,4.9.43,2.36.03,3.37-1.18,3.03-.76-3.53-2.59-6.78-3.33-11.5,3.8-1.37,8.03-.14,11.9.49,2.64-4.27,3.91-10.89,8.59-12.74,3.37-1.33,6.27,3.72,8.84,4.75Z"/>
    <path class="st77" d="M66.2,108.94l1.26,1.79-6.65,11.05.59,1.74c.59,1.1-.74,1.8-4,2.1,1.91.49,2.55,1.2,1.92,2.14.74,3.09,3.89,4.75,5.28,7.07,1.1,13.96-.11,8.62-1.91,9.82.02-12.54-1.57-8.42-9.7-19.25,3.15-4.89,6-9.66,9.41-13.79,1.05-1.28,1.95-3.04,3.81-2.68Z"/>
    <path class="st98" d="M194.31,73.61c-1.87,1.07-2.66-.76-.76-1.96-.19-1.98,1.13-3.31,3.97-3.98-2.9-1.16-5.96-1.68-9.17-1.54-2.53-2.24-1.82-5.47,2.12-9.7l-.75-1.73-.06-.96c1.79-.44,4.88-2.81,6.49.31,1.15,2.22-1.65,4.5-3.3,7.05,5,1.44,10.1,2.22,12.06,7.68-3.12,2.72-7.16,3.77-10.6,4.84Z"/>
    <path class="st37" d="M57.42,53.8c1.12-.43,2.08-.77,2.01.56l.21,2.47c5.72,6.57,6.03,10.59.92,12.06l1.54,4.78c4.77,3.7,3.6,6.95-3.53,9.76.08.73.74,1.6-.28,2.01-.93-.8-3.71-.33-3.84-2.53-.16-2.88,5.43-3.99,4.91-5.66-.21-.68-1.35-1.13-1.64-1.97l-3.33-9.66c.1-3.7.29-7.37,1-11,.57-.68,1.54-.42,2.03-.82Z"/>
    <path class="st83" d="M103.39,24.62c1.9-.81,2.79-1.08,2.02,1.15.49,1.55-.19,2.92-2.02,4.08-1.83,3.86-3.85,5.48-6.07,4.86l-2.34-.48-2.69-9.6c-.65,1.18-1.4,1.33-2.9.89-.09,4.71-6.51,5.15-3.87.83.43-.86.71-1.78.88-2.73,2.47-.98,4.55-5.62,7.5-4.59,3.52,1.23,2.69,5.94,4.15,9.17,1.78-2.41,3.95-2.68,5.34-3.58Z"/>
    <path class="st33" d="M194.39,89.62c.58,8.94,1.71.1,1.25,13.15,5.52-1.28,11.81-2.52,17.21.82,1.11.69-1.4,3.75-2.46,3.96-1.1,2.55-2.46,1.89-1.9-.86-1.35-1.07-3.02-1.5-5.02-1.28-12.48,3.29-16,.8-10.56-7.48-3.27.16-3.5-3.19-.38-4.19-1.19-2.41-.82-7.15,1.85-4.12Z"/>
    <path class="st40" d="M198.42,172.66c.69.2,1.34.51,1.97.85-.74,2.79-3.8,4.47-5.86,6.21-2.35,1.98-3.73,4.05-7.13,2.9-1.32.11-2.99-.48-5.02-1.76h-1.99s-.82-.89-.82-.89c2.33-1.75,3.6-3.16,3.81-4.23-3.05-5.01,3.8-3.03,6.13.66,1.69-5.59,3.93-5.4,8.93-3.74Z"/>
    <path class="st20" d="M158.23,33.61l1.33,1.82c-1.48,3.9-6.81,13.12-9.68,15.94-.47.47-1.64-.3-2.3-1.02-1.88-.87-1.69-3.3.56-7.3-2.24,1.05-3.93.95-5.06-.3-2.55.62-3.92.92-2.69-2.13,6.75.59,6.07-4.69,12.43-2.01.62-2.7,3.65-4.78,4.68-6.98l.73,1.98Z"/>
    <path class="st95" d="M193.55,71.65l.76,1.96c.12.32,7.02,14.98,1.63,16.8-.47.16-1-.73-1.55-.79-2.33-.28-1.45,2.55-1.85,4.12-3.38,2.07-4.9-2.98-1.26-3.9-4.05-2.24-3.18-8.16,1.99-7.74l-1.22-3.61c-3.8-3.56-4.14-10.55,1.51-6.84Z"/>
    <path class="st106" d="M187.39,182.62c1.12,4.74,3.95,8.72,5.84,13.16-.84.36-1.42.51-1.99.23-.71-.35-7.15-12.77-8.87-15.15.45-1.27,1.99-1.49,2.81-.54.51.6,2,1.38,2.22,2.3Z"/>
    <path class="st81" d="M63.25,46.52c6.73,2.68,2.22,13.58-3.82,7.84-.58-.08-1.34-.65-2.01-.56,1.39-1.21,2.91-1.2,5.07-2.29-1.93-2.97-1.5-6.08-2.1-8.89,1.04-.62,1.05-1.94,1.18-3.03,3.01.31,4.07,5.02,1.69,6.93Z"/>
    <path class="st97" d="M111.39,22.62c-.84.1-1.63-.32-3,.3,1.06,1.2,2.31,2.41,2.92,3.66.29,6.84-7.27,8.01-6.26.39.78.74.9.34.37-1.2-.67-.34-1.24-.98-2.02-1.15,2.6-1.68,5.23-4.54,8-2Z"/>
    <path class="st61" d="M58.3,161.73c1.65,2.03.68,2.62-1.68,2.19.12,1.73-2.7,3.32-4.23,2.61-3.17-1.38,3.22-4.39,4-6.91.49-.34,1.08-.85,1.34-.51.56.75.64,2.14.58,2.62Z"/>
    <path class="st114" d="M61.5,164.59c2.35,1.86,1.48,3.28-1.23,2.02.03-.58-.34-1.04-.72-1.1-.59-.1-1.42-.27-2.12.12l-4.86,2.7-.19-1.8c1.5-.67,2.92-1.6,4.23-2.61,1.74-1.69,3.99-1.83,4.88.67Z"/>
    <path class="st79" d="M75.59,205.57c.81.05,1.51.32,1.66.99,5.47,23.74-13.49,30.08-32.43,21.23-7.47-3.49-10.6-6.29-9.61-15.26.22-.87.78-2.11.89-2.91.1,4.93,6.09-5.6,11.91-11.28.81-.79,1.45-2.54,1.71-3.31s-1.22-1.46-1.57-3.04c1.93.07,4.65-1.4,6.39-.59,2.15,1,1.92,4.7,3.56,5.28,3.28,1.17,6.27,1.09,8.46-1.6l1.94,6.98c3.26-1.06,4.17-3.77,5.64-6.58-.39,3.93,1.32,6.95,1.43,10.09Z"/>
    <path class="st46" d="M53.39,244.66c2.14-.83,3.04-.42,3.03,2,1.19,2.86-1.46,5.15-1.87,7.89,2.44,1.61,1,2.77-1.33,2.96-5.49.56-7.85,12.3-9.81,8.23-.95-1.96,2.76-4.05-.15-5.26-3.09,3.52-5.89,8.07-10.64,9.68-2.26-2.74-1.91-5.87-3.03-8.86-3.11,1.81-5.59,3.95-9.15,3.17.82-1.43,3.09-4.04.95-4.88-1.69-.66-4.79,2.08-5.55-.33-.55-1.76,2.23-3.69.92-6.15-4.42,2.14-15.18,1.9-12.59-.46l1.12-1.02c2.44-2.58,5.3-4.64,8.6-6.19-2.34-3.86.3-6.85,7.94-8.96l4.49-4.88c3.33-.28,6.69-.23,10.08.15,3.39,5.28,10.77,7.44,15.58,10.92.45.33-.55,1.92-.58,2.41-.03.45.53.72.99.22.29-.32.74-.41,1-.63Z"/>
    <path class="st65" d="M34.39,205.56c-2.32,8.79-3.09,18.21,2.03,26.18-1.3,3.69-6.75.87-9.12,1.43-5.63,9.62-12.68,5.39-12.97,10.35l7.34.43c-5.72,1.57-11.94,7.55-16.36,7.68.59-2.91,2.57-5.2,4.23-8.17-4.79-4.1-1.17-10.49,1.85-14.72l-8.04,2.73c2.19-5.03,5.21-9.63,9.82-11.7,2.82.57,3.6-.79,2.35-4.09.99-3.73,4.05-5.18,9.16-4.36.32-3.16,9.72-13.57,9.96-7.35.02.53-.09,1.06-.24,1.6Z"/>
    <path class="st57" d="M79.39,205.63c3.84,4.48,3.72,10.68,2.81,16.68s-3.04,9.87-6.99,14.15c1.66,2,.34,3.43-2.02,2.04.04-.86-.53-2.15-1.56-2.49-5.17,4.85-12,5.76-18.72,4.01-12.68-3.29-20.87-15.1-17.7-27.49-.07,10.5,8.93,12.89,16,15.53,9.23,3.45,21.05,1.8,24.77-8.75,1.53-4.34-.24-9.48-.4-13.75.69.01,1.18-.47,1.73-.75,1.3-2.78,2.83-2.14,2.07.82Z"/>
    <path class="st110" d="M34.39,205.56c-.55-.58-1.09-1-1.65-1.22-1.44-.54-2.08.89-2.76,2l-3.74,6.09c-1.31,2.13-5.54-.02-7.57,1.38-3.24,2.23,1.52,7.74-2.81,7.93-1.3.06-2.4-.71-2.69-1.97.64-.57,1.37-1.14,1.78-2.03-2.48-.7-4.6-.77-6.74-2.45,1.79-4.32,5.88-6.71,9.89-8.33l.63-2.09c-1.86-.78-2.97-1.91-3.33-3.4-4.32-3.58,14.59-3.11,16.7-1.8l.79-5.16c1.72.79,4.08,2.21,4.32,4.15.36,2.87-2.26,4.81-2.81,6.91Z"/>
    <path class="st43" d="M18.09,206.95c-1.57-1.81-4.61-3.09-2.71-5.5,2.51.71,5.04,1.56,7.06,4.1-1.48,1.32-3.11.89-4.36,1.39Z"/>
    <path class="st108" d="M69.5,297.41c1.98-2.43,5.05-3.25,7.99-3.85-.48-3.21,4.22-3.53,3.98-.05,1.96-.07,2.25.75.67,1.92-.37,2.68-2.54,4.68-6.5,6.01l1.35,1.71c-1.5,15.29,29.05,12.88,39.14,11.85,4.93-1.47,9.57-1.89,13.92-1.27-.19,3.49-4.32,5.54-8.3,6.38-19.93,4.22-40.73,3.08-60.41-2.19-3.82-1.02-6.61-3.97-8.01-6.2-2.86-4.57.94-19.23,4.97-21.01.57-1.59,1.51-1.74,2.92-1.16-.65-2.94.21-3.75,3.1-2.86,1.44-.89,2.55-.56,2.66,1.11l-1.04,8.02c.88.61,2.06,1.15,3.56,1.6Z"/>
    <path class="st31" d="M114.37,297.63c.68-3.16,5.37-.93,5.02,1.93,3.02,2.29,5.24,5.37,6.64,9.21,2.5.93,3.87,2.24,4.09,3.94l-.06,1.01c-12.47,4.91-39.21,6.31-50.76-.84-4.58-2.84-6.01-7.55-3.64-11.44,4.37-4.01,8.64-5,12.81-2.99,1.2-3.47,4.03-3.71,8.48-.73,3.7,1.47,6.9,1.37,9.6-.32,2.92-.66,5.52-.58,7.83.24Z"/>
    <path class="st15" d="M187.31,289.49c1.97.46,1.96,2.83,3.01,3.97-.78,1.07-1.38,1.96-1.8,2.68,2.94,2.92,4.47,6.13,4.61,9.64-4.84,12.04-28.9,11.25-39.86,8.17-4.51-1.27-10.96-4.36-9.58-10.08.17-.72,8.27-11.39,8.86-11.84,1.02-.75,7.77,1.68,7.68,4.25.75-2.35,3.68-1.77,5.3-.55l13.98-2.33c1.46-4.38,3.43-7.46,7.79-3.92Z"/>
    <path class="st38" d="M75.14,252.6l.22,2.01c-.5,2.29-.62,4.43,2.07,2.9,1.28-1.53,2.98-3.39,5.19-3.36-.97,5.38-2.43,9.85-.91,14.26l5.27-5.37c2.19,4.84-2.67,9.06-6.01,13.58-1.34-1-3.16-3.87-5.24-2.54-4.94,3.15-5.2,11.99-4.16,17.69,3.46-3.52,5.81-7.04,9.4-9.97.27,1.19.4,3.05,1.18,4.19.45.65,1.5,0,2.76.23-.34,2.61-1.02,4.6.14,6.16-.54,1.59-2.13,2.08-3.57,1.14-1.27-.82-2.65-.11-3.98.05-3.06.64-5.72,1.93-7.99,3.85-1.39.3-2.51,1.88-4.08.75-4.29-3.08,1.59-9.29-1.11-11.48-1.64-.73-1.8-2.08-.48-4.05-1.71,1.49-2.58,3.79-2.62,6.91-.38.38-.5,1-1.01,1.42-.56.46-1.33.09-1.91-.26-.1-.46,0-.93-.42-1.89l-4.5,1.75c-.33-.05-.77.05-1.2-.05-1.49-.33,1.29-2.54.73-4.26-.32-.98-2.18-.54-3.11-1.36-1.67-2.36,5.69-3.86,4.5-8.3,1.22-1,2.93-1.66,5.13-1.98,3.88-2.64,5.42-5.57,4.63-8.79,2.45-3.95,4.91-7.69,7.4-11.21l2.03-2.68c1.02-1.89,1.86-1.54,1.66.65Z"/>
    <path class="st107" d="M160.51,290.8c1.64,3.15,1.55,4.98-.28,5.49-2.22-.79-3.83-2.13-6.94-2.96-.99,4.91-5,7.18-7.5,10.77-1.7,2.43,2.18,5.66,4.29,6.59,11.98,5.29,35.38,4.12,43.05-4.9.14-.89.46-.89.94-.07-.26,4.38-2.88,8.11-8.22,9.53-17.19,4.59-35.3,4.72-53.6,2.09,2.38-5.53,1.84-10.65.06-15.79-2.01-.35-2.62-2.6-.88-3.75.85-3.75,7.03-2.13,9.66-.12,1.11-2.79,4.85-4.39,7.31-3.11,3.02-1.74,3.75-4.86,5.55-8.19.72,3.1,1.67,6.84,4.38,5.73.45-.46-.65-3.08.48-3.46.34-.12.91.38,1.05.72l.63,1.43Z"/>
    <path class="st112" d="M128.52,298.68l2.87,6.03c1.12,2.36.6,6.11-1.28,8.02-10.46-2.17-4.36-8.35-12.72-11.45.73-.65,1.51-.99,1.99-1.7-.76-.42-.68-.76.19-1.03l1.36-2.32,7.58,2.46Z"/>
    <path class="st7" d="M190.32,293.46c3.21,3.5,4.02,7.75,3.75,12.25l-.94.07c-2.38-2.88-4.46-6.67-7.33-9.7-.71-1.37,3.12-3.68,4.52-2.62Z"/>
    <path class="st115" d="M189.72,54.69c.8.01,1.59-.02,2.11.2,2.96,1.26-3.74,7.5-3.96,9.23,5.37.15,9.82.25,13.43,3.9-2.58,1.6-5.31,2.37-7.76,3.63-.97.49-2.32.4-3.04,1.71,3.23,3.06,5.05,6.69,4.86,11.14-1.87.31-3.17-.33-5.04-.21.65,2,1.14,3.68.94,5.56-.97,1.96-2.11,1.9-2.84-.16-2.37,1.18-3.79,1.1-4.26-.25-2.99.01-4.38-2.75-4.17-8.28-.42-2.3-1.57-3.53-3.44-3.69-.54-2.56-1.93-2.45-4.16.32.16,5.59-5.92,9.99-8.68,4.15-1.01-2.15,1.08-6.89,3.8-6.4,1.56-.84,2.39-2.4,2.49-4.69l2.23-1.19c-1.55-2.08-.8-4.9,2.06-4.83l4.24-11.02,2.48,5.07c3.07-2.44,6.02-2.95,8.68-4.17Z"/>
    <path class="st56" d="M173.48,60.65l-.78,2.66c-.3,1.03.34,1.92,1.62,1.51-.59,1.52-.73,3.68-2.06,4.83-1.21,2.28-4.64,2.09-5.85-.15l-2.62-.78c-2.44-9.96-5.58-11.06-9.42-3.28-6.3,1.59-4.99-8.59-4.24-11.91-.55-1.27-2.13-1.81-2.54-3.18,1.92.72,9.66-14.73,10.65-16.74l.7.05c3.52-1.66,5.6,2.51,4.46,5.85,2.39,2.66,1.71,4.54.38,7.34,1.8,1.22,2.48,3.15,2.05,5.79l7.48,5.05.18,2.96Z"/>
    <path class="st23" d="M180.27,32.85c-.13,2.67-2.02,3.87-4.48,4.34-5.38-2.6-5.69-.99-.95,4.82,2.15.54,3.02,1.7,2.6,3.46-1.08,5.1-2.48,10.14-3.96,15.18-.43-1.35-10.56-7.2-10.42-7.62l1.03-3.09c.28-.85-2.16-1.26-2.29-2.05-.41-2.63,1.85-4.26,1.3-5.53-.27-.64-2.24-.81-2.08-1.52l.78-3.35c.32-1.38-1.95-2.65-2.88-3.83,1.53-3.05,3.27-6.67,5.69-9.02l2.29-.08c3.42,3.22,7.65,5.23,12.67,6.01l.7,2.28Z"/>
    <path class="st109" d="M185.46,6.5c.41,1.14,1.46,1.98,1.03,3.97-1.3,6.03-2.58,11.72-4.14,17.23-1.87,2.73-7.14-.12-9.35-1.88-3.06.88-7.48-.3-6.89-3.91,2.84-6.34,6.43-13.2,12.19-17.09,1.69-.91,2.86.18,3.51,3.28,1.1-.42,2.32-.96,3.65-1.61Z"/>
    <path class="st34" d="M182.36,27.71c-.65,2.3-.15,5.12-1.8,6.99-2.38.36-2.12-.47-.29-1.85-6-1.79-12.03-2.55-15.65-8.22-.03-1.03,1.14-1.9,1.5-2.71,1.95,1.53,4.38,2.79,7.28,2.04,2.74,2.23,6.07,2.45,8.96,3.74Z"/>
    <path class="st80" d="M180.27,32.85c-.15.62.3,1.26.29,1.85-.09,3.79-2.37,7.21-3.12,10.77l-4.01-1.91c-2.01-3.41-3.97-6.28-7.57-8.94,2.27-1.83,1.98.89,3.42,1.24,1.73-2.77,4.21-1.89,6.52-.5l4.47-2.51Z"/>
    <path class="st116" d="M185.46,6.5c-.06,1.24-1.05,2.39-.39,4.88-.7-1.97-2.8-1.09-4.31-1.27-1.48-1.2-1.36-3.89-2.46-5.28,1.41-.95,1.98-2.45,4.16-1.74,1.83.6,2.39,1.73,3,3.41Z"/>
    <path class="st2" d="M190.22,203.43c3.2.24,5.48,2.64,6.86,7.2.62,3.79,2.08,6.09,4.39,6.9,1.05,10.21-4.23,20.66-15.12,23.3-2.37.57-3.8-2.94-4.52-4.32-.85-1.63.88-4.21,1.09-6.29.46-4.41-1.35-8.57-1.46-12.63-1.83-2.72-4.07-6.29,1.05-6.18-1.46-1.59-1.46-5.15-.91-6.7,2.37-2.17,5.82-2.95,8.61-1.29Z"/>
    <path class="st47" d="M199.64,208.6c.71,3.01,1.52,5.89,1.83,8.94-1.19.71-1.23,2.52-3.63,3.36-1.1-6.75-3.3-12.72-7.62-17.46.22-.65.61-1.39,1.08-1.65,1.07-.6,2.21-.06,3.04.87l5.3,5.94Z"/>
    <path class="st45" d="M182.52,211.42c-.55.58-1.33.98-1.76,1.93,1.6,1.26,1.92,3.07.71,4.25-.85.83-1.44,1.85-1.26,3.1-1.05-2.48-2.27-7.57-3.51-9.88,3.4-2.08,5.34-1.88,5.82.6Z"/>
    <path class="st106" d="M180.38,180.86c-.94.98-3.65,1.6-3.56,3.43.12,2.65,3.44,4.43,3.19,7.1-.13,1.33-2.1,2.27-1.62,3.51,2.85,7.39-.49,3.8.2,7.01.33,1.53,2.55,1.71,3.03,2.79.98,2.2,2.74,4.77.91,6.7-1.91-.46-3.86-.98-5.82-.6-.21-.4-1.28-1.33-.29-1.51,1.5-.27,3.04.37,4.21-.55-.18-3.57-4.1-4.41-4.84-7.11-.38-1.38,2.48-3.21,1.04-4.74-1.03-1.09-1.77-2.58-3.12-3.85,1.12-.55,3.97-.97,3.7-2.15-1.57-4.06-4.84-6.37-7-9.28-2.17-.19-2.81-.81-1.91-1.85-.81-4.47,3.47-3.19,6.07-.67l6.08-3.98,2.72.61c.72-.03,1.33.63.63,1.36l-3.62,3.76Z"/>
    <path class="st52" d="M217.56,148.54c.58,1.85,2.45,5.63-.32,6.96-1.95.93-4.64-1.03-6.79-.62.68,5.45.14,10.96-4.65,14.12-.57-2.05.79-3.54-1.01-4.08-.26,1.47-.64,2.32-1.11,3.54-.52,1.35-1.82.37-3.51.42-1.59.04-1.61,2.7-1.75,3.79-.7.54-1.3,1.17-2.04,1.65-1.02.66-1.78-.59-2.79-1.52-1.84,2.27-1.82,4.83-4.08,7.09l-4.46-5.21c-.8-.94-1.62.41-1.68,1.08-3.01,1.69-5.83,5.18-9.65,5.58-.71.07-1.79-1.96-2.34-2.3-1-.61-1.94-.04-2.89.76.03,1.97-2.98,2.02-3.05-.03-1.24-1.07-2.65-1.49-3.82-3.2.4,3.22-1.13,4.32-3.35,5.19-.9,1.48-1.88,1.04-2.94-1.3-1.49-.48-2.77-1.05-3.86-1.7-.1-3.53-.17-7.06-1.2-11.03-2.52.16-4.41,1.46-5.87,2.99.22,3.67-4.35,4.95-4.11.65-.01-2.79-.11-5.57,1.01-8.58l-5.67-.27.96-4.06c-1.26-1.92-.66-5.21,1.72-4.96-.37-.97.39-1.91,2.27-2.82l-2.53-.35c-2.01,1.67-4.59.7-4.89-1.75-3.6-1.13-8.56-5.37-2.8-4.76,6.51,4.17,16.49-.27,22.8,1.38-5.15,3.42-9.33,7.29-8.35,13.32,5.66-.52,8.07-5.03,11.09-.99.58.77-.94,2-.94,3.4.67,1.82,3.71.32,5.66-1.31,1.23,1.39.35,3.18.95,5.18,1.96-.86,2.62-2.48,4.28-3.96,1.04.61,1.26,1.84,2.2,2.77,1.52-1.21,1.33-2.87,2.53-4.38l3.73,6.76,3.84-6.11c7.5,2.38,10.03-8.4,10.75-4.15.52,3.07-.03,6.67,2.53,7.92,3.98-3.1-.79-9.53,3.9-11.93-.47,2.27.11,7.97,3.1,7.48,3.55-.59,1.72-6.58,1.81-9.54,2.44,2.13,7.64,1.58,7.98.63.19-.54-.49-1.23-.43-2.57,2.27,1.47,4.46,2.03,7.17,2.63,1.74.39.87,2.59,1.98,4.28,1.04-1.91-.05-4.07.63-6.07Z"/>
    <path class="st5" d="M85.51,26.35c.34.29.25,1,.81,1.59.6-1.24,2.38-1.47,3.06-2.42,1.93,0,2.58,1.38,1.96,4.13,2.32,2.68,3.91,5.96,4.76,9.82,4.3,3.84,4.39,3.13.27-2.12l.94-2.64c2.89-2.95,4.14-7.28,8.09-8.94.45.23,1.41-.18,1.49.43.08.56-.18,3.97.23,4.23,1.52.95,2.43-3.86,4.18-3.84,3.88,8.03-2.42,16.58-.75,20.62l6.85-3.98c2.04,2.68-.16,5.52.24,8.25.56,3.88,1.14,7.34.18,10.81-3.05.01-.2-2.99-2.17-6.14-1.95,2.68-1.88,5.78-3.29,8.39,3.36,4.64-1.49,4.92-5.69,1.67-2.52-4.16-6.64-6.02-12.37-5.58-.33,2.02-2.82.76-2.85-.99-2.9-.86-2.14-3.5.87-3.13-.79-2.02-2.52-3.35-5.2-3.98-2.22-.27-3.41-.9-3.6-1.89-1.34-.38-6.3-.55-6.52-.29-.54.63-2.34,10.06-1.55,11.74,3.55,5.13,4.54,10.24,2.97,15.33,1.69.69,2.41,1.8,2.15,3.32,8.72,2.85,4.45,9.88-4.4,6.82-4.95-1.58-9.91-2.88-14.87-3.9l-2.72-.22c-.31-2.66,2.12-3.52,5.49-5.45-4.44-2.03-4.29-5.36-5.53-8.85-.95-2.69-4.09-5.2-1.38-8.42,1.13,1.96,2.28,7.38,4.72,6.08.43-.23,1.05-1.31.54-2.08l-4.39-6.72c-.54-.83-.47-1.78-.21-2.51.21-.58.95-.93,1.61-1.12l5.43-.87c-.33-2.61-1.21-4.72-1.61-6.97.28-2.9,2.4-5.09,6.38-6.56l4.64-1.64c-1.99-5.2-.03-12.5,5.11-6.85l.49-.78c-2.03-4.84-1.85-7.74.52-8.72,1.94,1.19,3.38,2.91,5.1,4.37Z"/>
    <path class="st22" d="M71.45,254.64c2.25,6.92-11.33,11.65-2.72,12.51-4.66,4.39-7.18,12.48-14.44,9.47-1-3.73-.03-8.21,1.04-11.9,2.01,0,4.07,1.98,6.34,1.33,4.67-1.33,4.29-12.52,4.48-11.65-.11-.53-1.18-.51-1.83-.66.42-1.48,2.17-1.99,3.85-1.1,1.33.7,2.24,1.55,3.27,2.01Z"/>
    <path class="st99" d="M85.45,80.75l8.69,5.17c2.3,1.37,4.36,3.86,5.45,6.04.81,1.62-1.35,2.73-1.77,3.65-.67,1.47-3.72-.33-4.42.43-8.63,9.32-2.23-1.27-7.99,10.59-3.46-2.62-8.87-4.91-11.96-2.56-1.7,1.29-2.2,2.62-2,5.24.11,1.53-2.6,3.57-1.71,5.33,1.24,2.46,2.46,5.86-.22,8.27-1.26,1.13-3.53,2.11-4.99,2.55-1.32-.3-2.37-.94-3.13-1.92-1.08-.22-2.25-.25-3.73-.4l8.54-14.19c.11-1.46-2.1-1.09-3.57-1.56-.74-2.1,1.77-3.82,1.62-5.76-.06-.86-3.79-1.47-2.62-2.88,1.66-2.01,3.1-5.56,4.91-6.73,2.57-1.65,4.87,3.06,7.63,3.36.54-4.04-4.16-4.86-7.26-5.86.57-.97,1.18-1.89,1.19-2.56.03-3.3-4.88-1.26-6.81-3.28,8.56-1.23,12.96,2.85,22.71,2.58l-3.44-5.5c-.23-4.15,2.87-2.43,4.89,0Z"/>
    <path class="st67" d="M79.39,31.47c-1.08,1.06-1.94-.71-3.4-.46-1.39,3.1.06,5.3.75,9.09-5.57.18-9.43,3.67-13.48,6.42-.42-2.35-1.48-4.61-1.69-6.93l-.63-7.23c4.06.16,6.27,1.65,10.08,3.33.8-4.58,2.56-8.43,5.34-11.75,3.08-1.56,3.16,5.08,3.03,7.53Z"/>
    <path class="st14" d="M80.41,21.97c-1.05,3.72.26,7.37.9,11.66-1.33-.35-1.1-1.72-1.92-2.16-1.62-2.29-1.06-5.49-3.03-7.53.57-.68.24-2.11,1.02-2.81,1.31-1.18,2.02.23,3.03.84Z"/>
    <path class="st54" d="M97.31,34.71c2.56,6.14,6.09,5,3.04,11.09-1.44-2.66-5.3-3.65-6.29-5.83-1.44-3.17-1.01-6.3-4.1-8.94-1.27-1.08-.07-4.28-.58-5.51.71-.98.96-2.2,1.9-2.64,3.9-1.81,2.89,4.29,6.03,11.83Z"/>
    <path class="st49" d="M191.27,89.84c-.14,1.25-.28,3.64,1.26,3.9-.37,1.45-.07,2.82.38,4.19-1.74.42-3.07,1.71-4.54,2.69-1.61-2.77-3.21-3.56-4.8-2.38-1.32.99-1.45-.2-1.55-1.64-.29-3.98,2.54-6.74,6.41-6.93.93.18,1.9.15,2.84.16Z"/>
    <path class="st32" d="M148.41,294.56c-1.13.65-1.58,2.13-3.9,1.9-1.38.46-1.47,2.99-3.21,4.47-2.61-4.11-6.24-3.19-9.86-3.15-.67-1.47-1.93-2.91-1.84-4.84,2.66-.97,4.71-1.12,6.92-3.62-3.79-1.99-3.87-5.49-5.44-8.51-1.79-3.46-1.89-6.66-.11-9.72.05-.76-1.43-2.53-1.64-3.2-.26-.84.99-1.52,1.26-2.26,3.33.23,6.78.44,10.35.61,1.58-4.82,3.34-5.96,5.27-3.42,1.58-.88,3.18.12,4.78,3-.12-.81.33-1.55,1.34-2.2-.36-.39-.67-.79-.77-1.24-.07-.33,4.37-3.75,5.17-4.34.09-.06-.62,1.29-1.35-.71-3.23.17-3.3-2.19-.13-2.65,2.46,1.78,4.15-2.7,5.19-4.84,3.99,2.96,4.21-1.44,5.87.28,2.27,2.34-5.8,7.12-9.11,17.57-.54,1.7.43,4.49-1.96,4.84-.67.1-1.46-2.02-1.92-1.12-1.39,2.71-.67,4.56-2.46,5.24-.7.27-1.2-1.23-2.82-2.16-6,14.23-3.31,10.02.35,20.06Z"/>
    <path class="st44" d="M112.37,293.47c2.35.5,3.2,2.03,1.99,4.17-2.26,2.13-5.69,1.22-8.8,1.96-10.38,2.47-11.96-3.9-14.1-2.3-.67.5-.92,2.17-1.84,2.79-1.64,1.09-3.46-.91-5.3-1.09-3.08.98-5.66,2.88-8.67,2.45,1.54-2.53,3.25-4.94,6.5-6.01.28-1.31,1.96-2.03,5.04-2.18,1.5-2.4,3.05-3.49,4.37-.5,2.18,1.12,9.7,4.61,7.73,2.03,2.92.02,5.89-.71,7.33-4.02l5.74,2.71Z"/>
    <path class="st64" d="M93.34,180.43c-2.21,2.12-3.18,5.62-3.95,8.3l.73.52c-.94,6.47-2.16,12.63-3.66,18.47.91,4.56-3.21,3.2-3.01,5.75.56,6.9-.74,20.65-8.25,22.98-1.07-1.43.48-2.29,1.43-3.53,5.99-7.78,6.19-17.92,2.08-26.78-.29-.4.36-.5.68-.51,1.22,1.05,2.19,2.95,4.33,2.38-2.17-3.39-.33-11.83-.47-11.73.27-.18,1.69.23,1.75-.24,1.12-8.83,7.16-19.24,8.18-16.63.11.28.37.59.15,1.01Z"/>
    <path class="st11" d="M83.51,50.64l-.44,1.09c-6.61.67-4.17,10.22-2.59,14.76l1.53.67c.77-7.5,4.13-11.36,9.27-3.74,3.64,1.21,5.35,2.98,5.14,5.29,3.73-1.1,4.18,5.1,1.8,7.05-.88-.61-9.23.2-9.46.62-.33.63-.49,1.39-1.06,2.19-1.85-2.18-2.39-4.75-5.23-5.96-.17,3.47,1.57,5.82,2.96,8.14-1.02-.61-4.16-.72-4.89,0-1.35-.81-3.74-1.1-4-2.83s.81-3.42.82-5.29c.02-4.66-4.72-8.59-4.28-13.05.38-3.83,2.24-7.52,1.99-12.32l8.42,3.4Z"/>
    <path class="st30" d="M112.36,64.54c1.27.11,2.86,0,4.01.75,3.88,2.54-4.64,15.84-6.07,15.36-1.13-.13-1.73-1.15-1.8-3.06-2.02-5.24-7.66-14.99-13.63-15.42l-.58-1.53c17.47-.23,7.03.25,16.66,6.27.77.04,1-1.62,1.4-2.36Z"/>
    <path class="st111" d="M104.53,87.62c-3.37-3.75-1.45-4.22-6.29-11.86-1.34-2.11.05-5.12-1.8-7.05.3-2.68,2.01-2.73,4.04-1.14,1.98-1.35,5.17,4.06,6.2,6.08,3.03,5.97,3.23,9.74-2.15,13.97Z"/>
    <path class="st93" d="M91.44,59.64l2.85.99c2.11.73,4.26,1.16,7.41.95,2.19,8.74,6.68,9.74,8.6,19.06-.57,1.25-.89,2.59-1.11,3.94,2.67,6.74-5.52,12.53-4.71,4.03-.04-.32.12-.69.05-1-.45-1.87.87-3.15,2.19-4.7,4.47-5.2-5.3-14.01-6.24-15.36-.98.06-5.69-1.89-6.66-2.52-1.82-1.18-8.94-7.36-4.29-6.9.86.09,1.47.78,1.92,1.5Z"/>
    <path class="st74" d="M121.7,133.53c.07-.58.07-1.47.47-1.94.43-.51,1.14-.71,1.47-1,.46-.42.34-.98.06-1.09l-1.82-.68c-3.46-1.29-6.28-2.08-8.23-5.65,2.25-1.14,4.45.2,6.5,1.82,3.31,2.61,10.5-.19,10.25,4.11-.18,3.05-5.97,3.48-8.7,4.43Z"/>
    <path class="st78" d="M133.14,148.56c2.13,2.02,5.57-.24,7.41,2.1-1.18.79-1.94,1.73-2.27,2.82-.96,1.42-1.28,3.35-1.72,4.96-.83-.41-1.49-1.05-1.7-1.69-.36-1.06.5-2.22.56-3.4.11-2.22-2.6-2.35-4.03-2.74.14-.23.03-.67.09-.94.09-.37-.08-1.1.62-1.33.31-.1.57-.22,1.03.22Z"/>
    <path class="st22" d="M77.42,257.51c-1.54,1.85-2.24,4.78-5.1,5.97-.63.26-1.04-1.02-.83-1.36.35-.56,1.47-.88,1.76-1.7l2.1-5.82c.01.77.23,1.57.17,2.54-.09,1.43.91.85,1.9.36Z"/>
    <path class="st10" d="M64.32,286.68c-1.08.9-2.11,1.86-3.1,2.86-2.51.57-1.06-3.81-1.32-6.66,4.34-2.81,7.03-6.51,10.31-10.33l-5.89,14.13Z"/>
    <path class="st44" d="M77.49,293.56c-1.88,2.51-5.07,3.22-7.99,3.85.43-1.76,1.65-3.33,3.03-4.05,1.76-.92,3.41.38,4.96.2Z"/>
    <path class="st50" d="M128.52,298.68c-2.6,3.53-6.3-1.9-8.95-.14.24-.82.4-2.03.71-2.78.26-.65.55-2.55,1.33-2.62,3.8-.33,5.61,2.79,6.91,5.53Z"/>
    <path class="st58" d="M172.26,69.65c-.46,2.52-.61,5.41-3.14,7.73-.46-.7-1.07-1.44-1.58-1.84-.5-1.73-.14-4.38-1.12-6.04,1.96-.3,4.01-.77,5.85.15Z"/>
    <path class="st75" d="M188.43,89.68c-.98,1.32-2.87,1.46-4.15,2.92-1.53,1.74-2.37,4.22-.71,5.65,3.01-.02,2.39,3.95-.39,4.38-.19-.35-.79-.57-.91-.95-1.37-4.32-1.55-9.01,1.9-12.24,1.43-.21,2.85-.03,4.26.25Z"/>
    <path class="st72" d="M151.46,178.74c1.97-.22,3.11-.99,4.71-.91.37,1.95.42,3.88,2.09,3.91,1.48.08,2.18-.15,2.92.26-.19,2.21-3.76,4.19-5.17,2.31-.82-1.09-.45-3.48-1.81-3.49-.67,0-2.34.82-3.13.13-2.11-1.83-2.28-5.62-2.64-8.06,4.19-1.02-.27,6.23,3.04,5.86Z"/>
    <path class="st88" d="M134.39,171.62l6.38.74c.36.98.2,2.85-.34,2.85l-6.04-1.59c-2.44-.43-5.04-.04-7.81-1.37-3.66-1.75-7.18-1.14-11.32-.79,7.03-5.57,9.32.55,19.13.15Z"/>
    <path class="st90" d="M134.39,173.62c1.99-.36,4.13.88,6.09-.76-2.46.66-4.65-1.3-6.09-1.24l5.88-.26c-.14,0,1.76,1.81,4.11-.65.63-.06,1.58-.18,1.76.4.32,1.01-.92,1.39-1.25,2.1l-2.49,5.42c-2.29-2.85-5.11-4.5-8.02-5Z"/>
    <path class="st39" d="M165.43,179.75c.85.24,2.26.71,3.05.03.93.3,1.37,1.13,1.91,1.85-1.02.03-7.77,1.65-7.81-.58-.02-.77.28-2.06,1.2-1.42.43.3,1.11-.04,1.65.12Z"/>
    <path class="st6" d="M136.29,103.84c.85,1.18,1.43,2.64,1.73,4.39,1.86-.03,3.59.14,5.18.51,6.2-4.03,4.7,8,.07,10.29-1.41-.05-2.77.3-4.13.59-3.01.64-3.29,4.98-4.75,1.93l.07-1.23c-6.9-2.03-7.83-13.56-2.17-17.45,2.28-1.57,4.44-2.3,3.99.97Z"/>
    <path class="st53" d="M148.28,112.54c-.08.47-.2.96.06,1.37,2.28,1.68,1.93,4.41-1.11,4.53.26.35-.04.64-.9.86-1.01-.17-2.03-.24-3.05-.27-1.65-3.56,2.39-2.65,3.04-7.86.21-1.65-2.35-1.36-3.11-2.44-2.31.52-2.38-.88-2.4-2.73-2.15-.1-3.65-.82-4.51-2.16-.49-.24-1.09-.72-1.63-.76-1.76-.14-5.34,4-4.64,10.03s9.26,7.68,4.38,8.44c-4.55-1.18-7.15-5.87-7.13-10.45s2.57-9.2,7.46-10.85c3.87-1.31,8.12.16,10.67,2.78,2.39,2.45,3.45,6.12,2.88,9.51Z"/>
    <g>
      <path class="st36" d="M166.41,69.5c3.42.04,3.87,4.52,1.12,6.04-.05,1.88-2.73,4.29-2.11,5.52.35.68,1.71,1.53,2.47,1.63,2.55.35,1.47-4.53,4.51-4.9,1.56-.14,2.53.55,2.51,2.1,1.21-1.59,3.39-2.34,4.8-.7s1.75,17.01,1.05,20.19l1.51,2.31c.44-.77.74-.45.91.95.62-.05,1.16-.02,1.38.25,1.26,1.59-2.41,1.16.35-1.63,1.1-1.11,1.77-1.39,3.46-.62.57-3.29,1.45-5.14,4.54-2.69.77,2.35-.48,4.77-.26,7.87,5.74-2.16,11.41-3.29,16.71-1.48-.29,1.23-.63,1.82-.87,2.38-1.44.97-2.88,2.06-4.3,4.02l4.31,2.82c1.67,1.1,3.2,1.39,4.99,2.09s3.63,2.1,5.45,3.93c-2.56,1.96-4.57,1.84-6.72,3.81,2.86,1.14,2.93,3.71,4.06,5.13-.07,1.49-1.14,2.17-3.2,2.04-2.28,1.96.09,3.58,7.1,4.88.45.51,1.36,1.06,1.51,1.72.71,3.3-5.67,2.03-6.35,4.36l2.22,7.04c1.52,4.76-.92,10.01-3.36,3.62-2.78-1.26-4.89-1.07-6.33.57l-4.78.23c-.21,6.93-2.87,9.39-7.99,7.38-3.11,8.84-5.8,5.29-7.91-1.42-2.29,2.29-4.9,3.49-8.21,3.36-2.52,4.84-4.97,7.31-8.47,1.5-1.26,1.71-3.07,1.66-4.67.28-2.83,2.8-5.89,3.3-6.53-1.15-4.59,1.97-7-.2-5.85-5.05l-6.53,2.3c-7.67-.27-3.58-9.8.44-13.07l-12.17.37c-1.88-1.13-3.51-2.35-4.88-3.66-.4-1.41.55-2.53,2.85-3.34-1.21-2.56-.11-3.15,2.2-1.83,1.86-1.06,3.9-1.96,6.12-2.72-1.58-.26-2.64-1.34-3.19-3.24-6.04,1.38-2.74-5.31,2.55-5.34l-.33-1.35c-2.82-1.95-4.49-3.73-1.39-6.36-.03-3.03,3.38-3.56,4.13-.59,1.11-2.7,2.42-2.59,3.05.27,4.56.4,6.33-.71,5.31-3.31-2.47,1.49-3.54.74-3.3-2.08-2.01-.02-1.98-.74-.06-1.37.27-2.76,2.17-3.65,5.69-2.64-.35-4.02,4.27-5.74,4.29-1.38,2.02.11,2.02-4.79,1.93-6.83-.02-.45-2.15-6.62-3.73-6.76-1.14-2.44-1.71-5.21-1.73-8.3-2.79-2.7-5.18-5.7-7.14-9-3.52-.35-6.58-6.57-2.51-8.4l.06-2.67c-1.91-6.8,2.35.19,1.49-9.28.78-.12,1.81.5,2.15.12,1.21-1.36-.06-5.37,1.34-3.87,1.49,3.42.68,7.55,2.74,10.92,2.01-2.11,3.67-6.71,6.45-6.49,4.59,1.88,4.9,7.85,7.09,11.55Z"/>
      <g>
        <path class="st26" d="M210.38,107.55c-.61.95-.69,2.19-.93,3.23.23,1.17.21,2.15-.95,2.75-.29,2.24-3.77.56-4.36-.46-2.41-4.19-.27-7.61,4.34-6.38.25.75,1.3.55,1.9.86Z"/>
        <path class="st55" d="M209.45,110.78c1.82.75,2.62,2.79,4.12,4.04l-.08.81c-2.41,2.2-4.95,1.24-4.99-2.09-.15-.55-.3-1.12-.69-1.93-.46-.95,1.02-.68,1.64-.83Z"/>
        <path class="st41" d="M216.29,128.5c1.59,2,3.64,4.21,3.9,6.92l-2.86,2.18c-2.2-2.24-5.63-2.11-7.67-4.51-.94-1.1,1.2-3.1,2.01-3.93,1.05-1.06,3.27-.82,4.62-.66Z"/>
        <path class="st58" d="M184.17,89.43l.55,1.24c-2.46,2.72-3.27,6.39-2.45,11-1.79-.44-2.78,1.19-5.21,1.28,6.78-8.78,1.73-7.72,1.93-21.01.01-.69-.65-1.85-1.12-1.86-1.88-.05-1.61,4.74-3.8,6.59-1.36-3.13-.65-6.07-1.67-8.88-.77-2.13,1.85-6.3,4.11-5.5,1.12.4.28,3.61,1.32,3.83.85.18,2-.3,3.29-.26-.29,5.14.15,9.78,3.05,13.58Z"/>
        <path class="st59" d="M158.27,108.52c1.35-1.89,2.12-5.98.19-7.9-1.26-1.25-4.9-.49-4.82-2.94.04-1.23,1.59-2.2,1.43-3.37-.14-1.03-2.17-2.32-1.87-3.63-.73-1.97-1.86-3.56-3.41-4.76l.31-2.32c-1.7-1.36-2.5-3.79-2.5-5.98,1.75-.77,8.43,9.59,9.15,11.21.34.77-.42,2.46-.43,3.21-.03,1.35,2.81,1.25,3.13,2.3,1.29,4.29,2.27,8.77,6.84,10.58l4.25-8.45c2.04.27,3.1,2.89,2.44,4.51-.72.07-1.52-.28-2-.13-2.59.81-1,6.07-3.53,8.04-2.35-2.42-4.08-4.25-6.8-5.86-.74,2.91.2,5.27.45,8.24-1.57-.45-2.6-1.46-2.84-2.75Z"/>
        <path class="st89" d="M198.38,142.68c-1.19-3.33-3.09-7.85-3.91-11.65,1.91-1.21,4.66-2.21,4.22-5.37,3.01,1.01,3.82,3.86,3.59,6.83-1.36,3.25-.37,6-3.9,10.19Z"/>
        <path class="st82" d="M170.32,153.41c-2.66,1.43-5.25,1.77-7.78,1.04-2.12-3.38-1.31-7.32,2.14-9.42.36,1.53.32,3.27.97,5.17.48,1.39,1.85,1.95,3.16,1.73.82-.13,1.51-1.01,3.21-2.29.04,1.18-.62,2.95-1.71,3.77Z"/>
        <path class="st21" d="M135.39,138.62c0-1-.38-2.47.17-3.15.89-1.1,2.24-.6,3.92-1.04-.51-.77-.95-1.18-1.16-1.76,2.29.77,4.63,1.2,6.94,3.46-2.69,2.06-6.74,4.23-9.87,2.49Z"/>
        <path class="st18" d="M188.38,100.62c-1.65,1.11-2.58,2.84-4.25,4.73-.96-.6-.79-1.82-.94-2.73l.39-4.38c.12-1.38.99-2.66,1.87-3.82,2.68,1.03,3.39,3.71,2.93,6.2Z"/>
        <path class="st70" d="M170.32,153.41c-1.71,1.28-2.8,2.78-4.43,2.86-1.29.06-2.51-.83-3.35-1.83,2.18-1.22,5.4-1.55,7.78-1.04Z"/>
        <path class="st17" d="M151.64,115.99c3.48,3.11-1.89,4.07-4.41,2.45l1.11-4.53c1.25.44,2.2,1.39,3.3,2.08Z"/>
        <path class="st8" d="M146.33,119.3c-.38-.65.46-.87.9-.86,1.13.04,2.21.37,3.52.07.9-.21,1.23-1.45.89-2.52,1.02.64,2.4.91,2.98,2.97-2.76,1.08-5.64.79-8.29.34Z"/>
      </g>
    </g>
    <path class="st117" d="M140.55,150.66c.74,1.67-1.62,1.94-2.27,2.82-.53-.39-1.24-.75-1.58-1.74,1.48-.99,2.65-.94,3.84-1.08Z"/>
    <path class="st51" d="M92.31,56.51c-.57.81-.67,2.15-.87,3.13-.57.16-1.29.2-1.7.73,6.26,6.35,5.3-.58,10.73,7.19-1.21.78-2.61,1.15-4.04,1.14-3.55-2.29-6.82-4.47-9.9-8.37-2.74,4.25-3.94,8.19-2.46,12.22-2.18-2.03-3.87-3.8-3.59-6.06-2.36-7.13-4.18-17.16,6.47-14.02,2.01.59,5.57,1.98,5.36,4.04Z"/>
    <path class="st102" d="M83.51,50.64c-1.73-.7,14.37,3.37,8.8,5.87-2.65-1.58-6.93-4.92-10.37-3.36-3.71,1.68-.87,8.67-1.46,13.34-5.39-4.78-2-15.9-.49-15.88l3.52.03Z"/>
    <path class="st24" d="M150.1,83.61l3.87,3.1c1.41,1.13-.44,2.56-.77,3.98l-6.66-2.21c-.2-2.42,1.58-4.33,3.56-4.86Z"/>
    <path class="st25" d="M150.55,262.34c1.9-1.87,2.5-1.24,1.8,1.29.81.92.74,2.74.44,3.82-1.56,5.59-4.12-2.74-6.56-4.62.6-.39.94-2.39,2.16-1.62.6.38,1.59.6,2.17,1.14Z"/>
    <path class="st60" d="M152.35,263.63c-.5-.37-1.29-.82-1.8-1.29.03-4.1,3.41-1.36,4.85-5,8.01-1.53-3.27,5.47-3.06,6.29Z"/>
    <path class="st12" d="M143.21,108.73c-1.56,1.45-3.83,2.45-5.86,1.39-2.31-1.2-2.17-4.14-1.05-6.29,1.76-.32,3.9-.57,5.64.59,1.34.89.66,3,1.28,4.31Z"/>
    <g>
      <path class="st1" d="M143.08,42.75c1.77-.7,5.38-3.01,6.94-.63.88,2.71-2.37,5.62-2.44,8.23,2.4-1.19,4.47.94,2.54,3.18.1,4.62-1.37,9.55-4.98,13.03-.72.81-1.57.24-2.54-1.72l-1.45.08c-.34-2.45-1.23-3.91-2.67-4.39.48,2.89-.58,5.33-3.18,7.31.49,5.43,1.93,10.16,4.33,14.19,4.47,3.02,4.99,5.64,1.55,7.87,6.87,7.29-.06,10.45-7.3,9.3l-2.26,1.12c-6.21-4.6-7.38-4.21-3.51,1.16-2.58,5.95-2.96,12.18-1.14,18.69-2.56,5.11-6.92,4.41-13.08-2.09-5.14-3.67-4.83,1.74-4.07,6.05-2.02,1.41-1.35,3.06,2.01,4.96l1.27,4.81c2.82-2.65,5.67-3.93,8.57-3.85l.49,1.53c1.6.19,1.45.83-.47,1.94,4.28-.07,7.79,1.56,10.53,4.89l-.92,2.18c-.9,1.58-2.11,3.12-3.65,4.63,2.58,1.43,3.85,2.9,3.82,4.43.88.3.82.61-.09.94,1.03.93,1.42,2.39,1.19,4.37,3.7,6.17,2.23,16.04-6.62,12.21-2.19,1.6-4.68-.01-4.88-2.66-4.72,3.02-10.39,5.92-11.19-1.88l-3.38,1.46c-7.57-4.35-4.94-1.45-.15,1.9,1.38,3.03,3.63,4.52,6.73,4.47,2.36,2.49,5.52,3.15,9.48,1.96,3.18,1.81,6.74,2.61,10.68,2.38l4.39,1.73c3.38,4.39,7.12,8.24,11.21,11.54,5.48,1.45,15.09,7.3,8.5,11.96,4.78-1.09,9.14-.96,13.07.38.85,2.86,1.15,5.4.89,7.63-3.73,1.37-5.16,2.91-4.29,4.63-1.97,2.14-2.2,4.03-.69,5.67,4.55-7.45,12.37,2.73,12.32,7.8.88.4,2.08.96,2.7,2.22.42.85-1.31,1.63-1.82,2.25-.91,1.96-1.33,3.84-1.25,5.64,3.27,2.38,5.11,6.11,7.27,9.69-1.71.94-2.62.7-3.96,1.14,6.2,11.44,2.83,6.88,1.74,8.43-.36.51-.47,2.38.01,2.9,2.42,2.59,1.29,5.18,1.85,7.75.51,2.36,3.85,4.37,1.44,7.49l5.94,5.83c.41.4.59.95.59,1.33,0,.27-.21.56-.55.72-1.26-.98-3.06-.98-4.78-.34.88,1.21,3.25,2.43,2.92,4.17-.41,1.23-3.17,1.2-4.25,1.51-.1,1.11-1.62,1.83-4.57,2.15-1.07,3.33-2.47,4.72-4.2,4.16-4.5-.96-7.86-2.76-10.07-5.42-1.03.83-.92-.14-.91-.07.24,6.11-5.84,11.15-6.23,3.09-.89.61-1.31.19-1.28-1.26.55,5.37-1.72,4.92-5.55,2.28-1.87,2.59-3.63,3.5-5.27,2.74-3.45.17-5.98-7.48-5.78-10.65.22-3.48,3.53-12.95,7.85-10.25.32-2.48,1.98-4.14,4.54-4.01,1.31-6.16,4.14-11.68,8.49-16.58-1.58-.73-3.17.32-4.76,3.14-2.5.32-3.66-.18-3.47-1.52l-2.17.69c-.91-1.81-1.59-.79-2.02,3.07-4.1,2.98-7.28,3.36-9.55,1.15l-2.17,1.12c-6.93.59-11.68-6.3-9.42-13.19-2.49-.08-4.18,1.91-2.03,3.86l-1.23,2.19c3.46,4.33,4.1,8.29,1.91,11.88.83,3.33.8,6.53-.12,9.61,1.2,3.23,1.81,6.39,1.82,9.47,2.43,2.83,4.23,5.78-.79,6.45-1,2.87-3.08,3.25-6.22,1.13-2.29.28-3.54-.6-3.74-2.62l-.47,1.57c.58,5.95-.99,7.21-4.71,3.78-.56-1.5-1.22-1.97-1.98-1.39-1.09,1.55-2.74,1.51-4.94-.12-1.92,1.89-4.63,2.37-8.13,1.43-1.22,1.07-5.99-.17-5.87-2.09l-4.05-.78c-3.25,2.51-4.7,2.66-4.33.47l-2.43-.58c-1.1-8.87-3.97-5.76-8.25-.07-6.29,3.48-5.78-5.74-4.94-10.08,1.1-5.66,4.75-12.92,11.12-8.14,4.84-4.71,5.12-5.97.83-3.79-2.64-2.89-3.16-6.8-1.56-11.73l-2.4-.47c-2.53,3.36-3.22,2.39-2.07-2.9-2.33.09-2.4-1.2-.22-2.01-.31-.4-.54-.79-.49-1.14.32-2.54,1.78-1.96-.02.1-.23.27-.66.36-1.15.4,1.56,1.67.21,3.75-2.03,2.68-1.7.92-3.83.54-6.37-1.12l-.75.22c2.21,1.99-3.9,7.81-6,7.2-1.23-.36-3.19-4.95-3.78-6.38-3.11-1.1-.03-6.3,1.87-7.89-1.84-1-2.12-2.34-.07-3.2l14.69-.79c2.7-2.45,5.47-4.73,8.32-6.85,2.98,1.35,6.46-.42,7.83-3.51,3.37-1.73,3.2-2.68-.53-2.87-2.89-2.65-3.69-6.38-2.4-11.2,3.71-.19,1.84-3.59-.81-4.77-1.6-1.68-.6-3.6,3.01-5.75-1.26-3.45,1.44-4.88,8.1-4.3-3.73-1.55-5.63-3.78-5.7-6.7,1.11-3.07,1.28-5.73.53-8-1.86-1.55,1.56-8.39,3.95-8.3-.71-1.33-.46-2.23.49-3.13l-6.37-.82c-2.56.63-4.53.07-5.89-1.67,4.95,4.15,5.41,6.85,1.37,8.12,1.59,5.18-.05,9.83-2.61,14.35.32,4.23-.69,6.75-3.01,7.54,1.18,2.5.05,2.9-1.73.75-1.65-.2-2.54-1.37-2.66-3.5-4.57,2.95-6.58,1.3-7.45-3.44-4.03,1.34-7.23,1.14-10.12-2.05-.74-3.35-2.04-4.26-3.87-2.71.2,3.65-8.95,15.32-11.62,17.18s-4.2,2.44-3.76-1.43c.75-5.58,4-10.22,8.33-14.97-1.86-1.5-3.72-.18-5.26-.95l7.29-7.72c-3.2,3.39,7.47-13.22,6.57-10.99.39-.95-.88-1.38-2.27-1.67,0-1.17,1.23-1,1.73-1.5l2.93-.75c2.64,3.41,6.69,2.53,5.87-1.88,1.63-2.02,1.7-3.55.21-4.59-1.4.37-3.93.16-4.88-.67.69-.53,1.03-1.58,1.68-2.19,1.04-.96,1.96-2.65,1.93-4.47-.02-1.03-2.06-1.5-2.93-2.3,2.12-1.33,4.83-.95,6.82-2.57-1.27-.54-2.84-.81-2.58-2.16.13-.67,1.46-1.13,1.93-1.88,7.24-4.49,6.91,3.47,13.49-2.19.29-.75-1.38-2-1.31-2.93.11-1.37,1.56-1.96,2.38-3.21-1.98-.4-3.42,1.65-4.34.59-1.19-1.36-2.49-2.71-1.93-4.42,1.57-4.76-6.35-1.82-1.47-6.94-3.69-1.04-7.32-1.8-10.99-1.48-.25-.75-2.26-.95-1.92-2.14,2.77-1.24,5.15-1.3,7.13-.18.8-1.79,2.31-3.57,4.51-5.32-1.5-4.31-1.36-7.89.43-10.72-.01-10.29,8.43-8.69,15.46-6.4,1.66-3.31,4.17-6.19,7.52-8.63,8.45-.44,6.17-4.17-6.83-11.2l-.15-2.42c-2.7-.61-5.67-4.05-4.95-6.93.67-2.68,1.22-2.88,3.31-.94,1.42-1.12,2.7-.43,3.85,2.06,3.29-1.19,9.34-3.01,10.57.83,4.78-.31,6.04,7.94,6.29,11.86.89.31.86.64-.05,1-1.11,4.83,2.81,8.47,7.15,9.92-2-4.38-2.3-9.35-2.44-13.95-2.06-.67-.76-4.1,1.11-3.94l.47-3c5.07-6.91,5.96-10.59,2.69-11.04l-1.1-2.06c-2.84-7.27,4.94-15.07,5.42-3.4l.04,1.15c1.66,0,3.2.21,3.82-1.9,3.32-2.06,3.27.09,1.75-.49-2.88-1.1-3.35-2.39-1.87-5.22.19-.08.44-.03.65-.07-.14-2.8.71-4.26,2.56-4.38,1.48,1.97,6.59.84,3.75-1.08-5.01-3.37-4.65-3.9,1.15-4.53l-.09-1.03,5.99-8.44c2.32,2.76,2.54,6.02,3.18,9.52,1.9-.06,2.97-1.38,4.37-1.93Z"/>
      <g>
        <path class="st4" d="M140.39,40.62c.42,1.02,1.91,1.47,2.69,2.13.41,1.19.15,1.79-.46,2.55-3.85,4.75-6.8-2.77-7.35-6.31-1.55,3.4-3.46,4.94-5.72,4.61-.43-.41-1.32-1.33-1.15-1.98,2.15-3.92,3.49-8.76,7.62-11.16,2.99,3,3.36,6.89,4.38,10.16Z"/>
        <path class="st87" d="M63.48,148.35c3.9,6.1-.47,8.75-6.18,6.61-.05,3.63-2.81,1.56-1.91-1.34,1.95-2.14,3.57-4.52,5-7,.51-.44,1.94-.74,2.38,0,.29.48.94.98.71,1.74Z"/>
        <path class="st114" d="M57.3,154.96c6.53-1.7,6.45,7.61,1,6.77-.82-.09-1.46-.79-1.91-2.11-1.72-1.5-2.57-4.28-1-6,.07.43.28.89.69,1.36.25.29.9-.12,1.22-.02Z"/>
        <path class="st71" d="M56.42,246.66c-1.27-.18-2.61-.71-3.03-2,.06-4.78,6.9,1.88,19.8-6.16.81-.5,1.36-1.38,2.02-2.04,5.76-5.82,8.04-13.62,7.17-21.97l1.08-1.01c1.4-.46,4.72-1.5,5.38.53-2.47,2.29,2.15,8.99-1.86,6.58-.38-.22-1.02-.1-2.16-.99-1.51,3.41,2.79,9.56,4.74,8.72.49-.21,1.35-1.22,2.16-1.24,1.09-.03,1.08,2.12.84,3-.9,3.34-3.98.1-6.55,9.53-1.08-1.05-1.17-2.53-2.11-2.63-.61-.06-1.03,1.95-1.89,2.05-1.2.13-2.37-1.34-3.22-1.34-1.68,0-1.36,2.31-2.27,3.06l-5.2,4.29c-4.63-.32-9.79-1.73-14.44-.84-.56.5-.32,1.88-.45,2.46Z"/>
        <path class="st13" d="M55.33,264.71c-.38-1.73-1.35-3.24-1.85-4.94-.21-.71.05-1.6-.26-2.27-.62-1.32,1.2-2.08,1.33-2.96,2.47.25,4.04,1.98,4.04,5.2l5.74-6.02c4.61-2.48,4.13,4,3.03,7.06-2.38,6.59-7.88,11.09-12.02,3.92Z"/>
        <path class="st62" d="M52.49,171.82c2.22-2.26,5.21-3.42,7.78-5.2.7-.49,1.21-1.11,1.23-2.02,1.25-.33,1.88-.93,2.84.61.44.71,2.47,1.65,1.05,2.4-.98.52-2.27.79-2.45,1.47-.1.39,1.49,1.13,1.26,1.72-.65,1.68-3.47,4.75-5.74,4.47s-3.86-3.02-5.97-3.45Z"/>
        <path class="st100" d="M130.6,265.64c.54,1.69,1.29,3.58,2.26,5.66-1.85,6.05-.14,12.09,5.13,18.11-.89,2.44-2.9,4.16-6.01,5.16.93,1.16.55,2.1-.54,3.22.54,1.18.46,2.56.88,3.75-1.25.36-.77,2.15-.93,3.16-2.56,1.66-5.26-4.33-2.87-6.03l-1.35.28c-2.03-3.17-4.33-4.23-6.89-3.19l-2.42-.21c.91-1.62,1.47-3.64,1.68-6.04,2.64-.52,9.69,6.53,7.07-.37,1.51-1.01,3.08.44,4.98-.31l-4.13-4.36c4.54-3.14-1.02-7.65-.31-10.56,3.57-5.93-2.79-7.94-.11-9.92,4.53-3.36,1-1.71-.37-10.39,1.24-1.21,2.12-1.17,3.22.08,1.97,2.25,5.6,11.11.71,11.96Z"/>
        <path class="st94" d="M186.5,286.89c.37.83.65,1.7.81,2.6-1.1.22-3.76-.87-4.62.46-.97,1.51-.67,3.52-1.64,4.79-.9,1.16-13.27,4.47-15.51,1-.44-.38-.82-.79-.99-1.26-.13-.35,2.59-5.69,3.11-6.7,3.85.78,7.59,2.21,11.55,4.03,1.46-2.86-.15-4.95.68-7.31,2.07.74,1.91,2.81,2.97,2.83,1.35.03,2.67-.16,3.64-.44Z"/>
        <path class="st0" d="M136.57,158.44c1.15,1.63,2.74,2.51,4.77,2.65,2.14,1.69,1.84,9.32-1.07,10.27-.97,1-2.94,1.08-5.88.26-.82.65-.81,1.32,0,2,2.09.6,3.95.63,5.59.11,1.43,1.84,2.38,1.57,2.84-.81,2.07-.33,2.59-1.07,1.56-2.21-1.8-2.32,2.19-4.87,4.42-4.81,4.68.13,6.26,10.49,2.65,12.84.06,1.2,1.4,1.51,4,.93.57,4.73,6.04,3.96,2.8,2.07.47-3.05,1.69-6.21,5.5-5.7,1.1.15,2.71,2.45,1.67,3.71-1.37.92.28,1.55,4.96,1.88,4.33-.56,9.91,8.73,6.75,12.29,1.25,2.75,1.25,5.29,0,7.6,2.44,2.38,4.05,4.99,4.81,7.81-1.88.33-3.63.82-5.25,1.48,4.15.8,3.84,6.29,3.51,9.88.29,1.99-.06,4.04-1.54,5.47-3.57-1.62-6.03-11.21-9.74-8.07-1.77,1.5-1.12,6.11-4.6,6.3-2.27.12-3.92-2.71-3.39-4.54,1.4.41,2.13.76,2.9.67,1.71-.19-.82-3.07-.74-5.38.03-.87,1.84-1.56,2.04-2.62.29-1.58-2.19-2.14-2.62-4.34,2.71.39,6.29.05,7.96-1.89-.59-1.07-2.01-1.79-2.61-2.58-.56-.73,1-.81,1.45-2.58l-12.91.81c-2.24.14-4.81,1.85-6.9,2.41l-2.01,5.59-7.37-5.84c-1.77.38-1.85,1.21-1.96.43-.27-1.93-1.06-3.07-.54-3.53.86-.77,1.89-.08,3.36.38,1.13-1.44-.65-2.72-.32-4.53,2.68.38,2.77,2.93,4.55,4.81l1.08-8.11c2.06,1.38,2.94,2.99,4.65,5.09,2.18-2.04,4.49-1.1,7.13-.16-.39-4.06-3.75-6.44-7.21-7.49-13.9-4.24-8.63-18.04-24.98-14.56-1.19-.57-2.73-2.89-4.01-2.83-1.39.07-2.6,1.85-3.75,2.46-9.28-7.59-8.79-2.17-10.62-3.92-.85-.82-.51-2.35-1.32-3.36-6.29-7.84-13.73-4.13-14.17-9.27,2.69,1.14,4.6.69,6.47-1.88.71,1.03.72,2.28,1.54,2.67,1.28.6,4.98-1.72,5.78-.26.22.41-.42,1.61-.01,2.12,1.96.18,3.53-1.91,5.66-3.24.86,2.24.24,4.34.74,6.47,4.74.66,7.33-1.46,9.93-5.46l1.43,6.54c1.15-.81,1.97-1.74,3.09-1.57.68.1,1.78,1.7,2.77,1.47,3.16-.73,4.35-5.55,2.56-8.16s-2.09-5.23-.6-7.63c1-1.14,2.79-.96,5.38.54-.63,2.39-.7,4.82-.2,7.3Z"/>
        <path class="st96" d="M178.3,236.28c-3.69-2.71-2.35,4.68-8.56,8.91-.75.28-2.06-1.55-2.19-2.23-.16-.9,1.67-1.32,2.35-2.06,1.35-1.48-.65-3.47-.35-5.47.31-.67,1.86.19,2.21-.3.62-.88.67-1.98,1.03-3.37,2.59,1.45,5.3,1.17,6.76-1.12.31,2,.24,4.06-1.25,5.64Z"/>
        <path class="st103" d="M129.64,44.63c-.88,1.07-2.55.19-3.38,1.69,2.29.38,3.53.97,4.6,2.52.9,1.31.62,2.68-1.08,3.83-1.33.9-3.24,1.11-5.19-.68-1.39.3-1.46,1.95-2.42,2.63-1.04-5.56-1.98-5.86-1.58-14.12,1.88,3.71,5.6,3.9,9.04,4.14Z"/>
        <path class="st86" d="M121.64,60.39c-1.51-1.38-2.35-4.83-.11-5.71.06,1.3-.49,2.66.29,4.01,1.23-1.04,3.23-2.89,4.08-1.84,1.3,2.97-.52,6.15-1.28,9.18-2.2,1.86-.8,5.26-3.87,6.93.93-5.61,4.71-9.08.9-12.57Z"/>
        <path class="st28" d="M64.52,125.44c-2.25.68-4.84-.11-7.13.18l4-2.1c.67.14,1.43-.12,2.31.26.53.22,1.29.78.82,1.66Z"/>
        <path class="st84" d="M142.61,64.83c.65.82,1.79,1.06,2.54,1.72,1.73,1.54,3.5,3.21,4.17,5.86-2.02.52-2.97-1.2-4.77-1.43.51,2.78,3.05,4.22,3.06,6.65,1.95,1.95,2.79,3.94,2.5,5.98.49,1.22.08,2.28-1.21,3.19,2.82.79,4.26,2.09,4.31,3.89,2.74-.13,4.58,4.68,2.75,6.97,3.08.07,6.14,3.85,4.12,5.93.29,3.43-.31,5.08-1.81,4.94-.74-.21-1.4-.76-2.55-.52.2,2.27,1.12,4.37.15,6.26-2.43-2.47-5.34-3.69-7.59-1.73l-.99-.66c-4.86-22.05-30-4.02-13.07,8.58l.17,1.1c.83.47,1.44.33,1.82-.41-1.51-2.4,1.13-3.81,2.93-1.52-1.43,4.44,4.39,3.31,3.59,8.08-.42,2.48-4.98,1.51-5.88,3.35-.26.54,1.26,1.05,1.47,1.61l2.48,1.97c-1.82,1.36-3.62,2.69-5.41,3.99-.39.92-1.68,1.11-2.2,1.83-1.07,1.04-1.69,1.09-1.86.15-5.41-8.27-10.14-3.01-9.62-7.07.97-2.43,5.87-3.89,3.1-2.03-.79.53-1.88.74-2.63.09-2.48-2-10.74,9.16-14.9,4.5,1.15-1.73,3.22-1.65,3.88-2.97-.14-4.09-3.6-4.84-7.04-6.07.45-2.59,3.47-1.87,3.92-3.37.28-.93-1.28-2.1-1.4-2.75-.27-1.5,5.22-3.16-2.78-15.55,3.04-1.56,4.96,2.22,5.26,4.57.53,4.19,2.37,5.02,5.8,6.43.72.3,7.49,7.64,9.45,4.9,2.64-3.68-3.08-7.69,1.9-19.69-1.13-2.18-4.01-4.23-3.36-6.48,9.11-1.37,8.38,8.12,11.48.36.44-1.09,1.47.21,2.02.63.69.53-.07,1.28.29,3,1.86-.87,3.6-1.67,5.09-3.14,2.13-2.11-4.47-4.94-2.35-7.55.45-.56,1.43-.67,2.84-1.64-11.61-7.75-4.88-13.46-10.18-20.47,3.62-.63,4.84-3.18,6.39-5.78l1.26.3c1.04,4.3,2,5.64,2.86,4.01Z"/>
        <path class="st38" d="M93.34,180.43c-.53-.15-.98-.23-1.16-.04-3.66,3.79-9.87,23-7.11,28-2.95,3.49-4.77.64-5.68-2.76-.55-.48-1.14-1.28-2.07-.82,1.19-2.79.05-6.91,1.79-9.75,6.53-10.65-3.01-14.01,5.6-14.42-2.29-1.41-3.23-3.17-4.83-4.7-1.15-1.1-3.17,1.39-4.19.97-1.44-.87-2.89-5.84-.38-6.15,1.29-.16,2.04,3.17,3.57,2.86s2.38-1.49,3.96-2.92c.75,1.07.82,4.05,2.18,4.3,4.96-1.68,2.52,1.42,13.23-.14,0,3.27-3.31,4.01-4.93,5.57Z"/>
        <path class="st69" d="M155.28,254.69c-.89.57,0,1.83.13,2.65,1.02.5,1.23.93.52,1.52-1.68,1.38-3.41,2.76-5.37,3.48-.84,1.21-2.28,1.37-4.33.48-3.24.19-2.29,3.41-3.87,5.39.22-.28-9.64,1.39-11.76-2.57,1.46-3.99-.33-10.06-3.93-12.04-.27-1.68-2.68-3.13-1.56-5.04,2.87-4.88,2.8-.97,8.34-4.81-2.04,4.36-3.31,9.96-.29,13.66.38.47,2.7-1.94,3.02-1.11.2.52-.28,2,.1,2.36,1.92,1.79,4.06-1.47,5.44-1.69,1.48.9,2.53,4.16,4.28,2.38,1.44-1.45,2.98-.94,3.42-1.87.62-1.31.15-3.96.51-4.88,1.98-1.44,4.17.98,5.35,2.1Z"/>
        <path class="st3" d="M95.52,263.31l4.22,8.27,4.58-6.55c2.04,2.34,2.11,5.35,5.37,5.96l.49-10.52,3.72,4.19c1.12-1.15.62-2.86,1.49-4.26l4.38,4.64c.99-2.58.54-5.29,3.75-5.06l-1.52,10.31c-1.61-1.25-2.32-2.9-4.97-2.95-.7,2.86.79,4.97-.64,7.18-1.98-.74-3.74-.58-4.85-.28-2.38.64-1.97,3.01-2.5,5.35-2.47-1.65-2.57-4.33-4.19-6.68-1.49.52-1.9,3.17-3.34,3.41-3.07.22-5.35-2.14-6.66-3.74-2.22-2.72-1.91-6.1.67-9.27Z"/>
        <path class="st35" d="M165.88,270.54c-2.5-1-3.76-5.28-3.07-8.29,2.53.62,1.7,3.39,3.57,3.17.93-1.36,1.12-2.5,1.98-3.26.65-.58,1.64.69,3.05,1.48.09-3.08,2.28-3.72,3.47-4.99,1.7-1.83,1.18-3.27,3.78-2.87s3.22,1.87,2.5,4.58l-1.3,4.9c-.96-.67-1.98-1.25-2.99-1.11-1.63.21-2.38,3.58-4.16,4.34-1.27.55-3.18-2.22-4.71-1.73-.68.22-.8,2.34-2.12,3.79Z"/>
        <path class="st13" d="M131.44,220.67c3.76,8.96-1,13.8-6.66,19.81-1.13-2.59.07-4.4.62-7.09-7.54.51.19-6.34.3-12.45l3.8,6.06c1.9-1.85,1.04-4.19,1.95-6.33Z"/>
        <path class="st111" d="M104.48,88.62c1.02.71,1.17,2.21,2.67,2.84.55-2.81.12-5.35,2.04-6.87,5.73,7.66-.86,4.2,5.81,15.81-5.72,2.05-14.54-6.1-12.38-11.05.23-.52,1.14-.7,1.86-.73Z"/>
        <path class="st9" d="M86.46,207.72c-2.76-3.12-.74-6.11.3-9.77l2.63-9.22c4.9,1.32-.12,5.7,1.62,9.79.8,1.89,7.93,3.33,6.14,5.57-2.81,3.5-11.55-.65-10.69,3.63Z"/>
        <path class="st30" d="M105.02,145.7c3.61,3.26-12.01,5.64-12.73,5.71-2.72.25-4.51-2.7-3.83-4.98.57-1.92,2.67-4.51,5.42-3.34.52,1.97-1.67,2.96-.86,4.61,12.31-4.13,5.15,1.94,12-2Z"/>
        <path class="st71" d="M107.94,234.53c.08.48-.86.95-1.09.78-1.42-1.07-1.3-3.83-3.05-4.49-3.48-1.29,2.57,2.42-8.89,0-1.83-.39.02-5.52,1.84-6.28,1.02,2.23-.12,4.32,1.02,6.07l4.42-6.3c.91.93.99,1.77,1.48,2.52s1.46.57,3.02.03l1.26,7.68Z"/>
        <path class="st16" d="M142.61,64.83c.57,1.11.44,2.56,1.92,3.45-1.83.73-2.92.56-4.25,1.46.77,3.57,1.62,6.88.57,10.5-5.46-6.31,2.27-8.72-2.36-19.71,2.09-3.51,1.31-1.15,4.12,4.31Z"/>
        <path class="st68" d="M120.28,295.76c2.68,1.38,2.01,1.95-.71,2.78-.09.31-.01.77-.19,1.03-1.91-.09-3.05-2.07-5.02-1.93-1.26-1.02-1.87-2.57-1.99-4.17.43-.73-.19-1.62.39-2.94,1.7,1.81,3.01,3.92,5.56,4.43.33-2.28-.77-5.06,1.22-5.46.89,2.02-.94,4.57.74,6.25Z"/>
        <path class="st27" d="M133.18,140.45c-.85,1.18-1.74,2.36-2.85,3.34-.3.26-.85.17-.97.5-.74,1.97,3.04.47,3.72,1.91.36.76.08,1.66.05,2.35.12,1.11-.43,1.48-1.65,1.11-1.7-1.33-5.94-1.99-5.5-4.97.34-2.31,3.98-2.86,5.34-4.09.38-.35,1.39.08,1.86-.15Z"/>
        <path class="st105" d="M167.65,287.78c.56,2.77-1.38,5.31-2.12,7.96-1.57.91-3.56,1.17-5.3.55-.04-1.84-1.26-4.12.28-5.49.45,1.02,1.38,2,2.59,2.61,2.12-1.9,2.64-4.05,3.43-6.72.56-.23,1.15.7,1.13,1.08Z"/>
        <path class="st29" d="M93.43,292.68c.27,1.5-.93,1.09-1.87.07-1.37.05-3.27.15-4.34,1.53-1.59,2.04-3.63.68-5.07,1.15-.26-.63-.48-1.27-.67-1.92.6-1.03,2.23-1.88,3.57-1.14s1.79.65,2.26-.62c.36-.99.56-1.68,1.56-3.5,1.92,1.21,2.52,3.6,4.56,4.43Z"/>
        <path class="st91" d="M93.43,292.68c1.41,1.47,4.51.89,5.87,2.09,1.87,1.66,3.86-.09,6.78,2-.02,2.03-15.52-1.54-14.51-4.02l1.87-.07Z"/>
        <path class="st22" d="M75.14,252.6c-.43-.45-1.05-.6-1.66-.65.7-2.6,1.85-5.05,3.79-7.61.98,3.54-.77,5.96-2.12,8.26Z"/>
      </g>
    </g>
  </g>
</svg>