<?xml version="1.0" encoding="UTF-8"?>
<svg id="Layer_1" xmlns="http://www.w3.org/2000/svg" version="1.1" xmlns:xlink="http://www.w3.org/1999/xlink" viewBox="0 0 224.22 286.07">
  <!-- Generator: Adobe Illustrator 30.1.0, SVG Export Plug-In . SVG Version: 2.1.1 Build 136)  -->
  <defs>
    <style>
      .st0 {
        fill: #c688a4;
      }

      .st1 {
        fill: #743753;
      }

      .st2 {
        fill: #f9bbd6;
      }

      .st3 {
        fill: #8b4f66;
      }

      .st4 {
        fill: #d9caca;
      }

      .st5 {
        fill: #763355;
      }

      .st6 {
        fill: #e2a9b7;
      }

      .st7 {
        fill: #ebc4c9;
      }

      .st8 {
        fill: #eab7c2;
      }

      .st9 {
        fill: #712e53;
      }

      .st10 {
        fill: #e293b9;
      }

      .st11 {
        fill: #9c5772;
      }

      .st12 {
        fill: #ebb9c5;
      }

      .st13 {
        fill: #834162;
      }

      .st14 {
        fill: #94695d;
      }

      .st15 {
        fill: #f2e8e6;
      }

      .st16 {
        fill: #f7e6e6;
      }

      .st17 {
        fill: #e7c3c9;
      }

      .st18 {
        fill: #f3cfe4;
      }

      .st19 {
        fill: #6d2f51;
      }

      .st20 {
        fill: #f6cdd4;
      }

      .st21 {
        fill: #d684ab;
      }

      .st22 {
        fill: #82405d;
      }

      .st23 {
        fill: #ddc7b6;
      }

      .st24 {
        fill: #eebdc6;
      }

      .st25 {
        fill: #ce9bac;
      }

      .st26 {
        fill: #af8287;
      }

      .st27 {
        fill: #edc7de;
      }

      .st28 {
        fill: #702d4f;
      }

      .st29 {
        fill: #cb7aa2;
      }

      .st30 {
        fill: #ccb1a9;
      }

      .st31 {
        fill: #e7e6e6;
      }

      .st32 {
        fill: #a86f83;
      }

      .st33 {
        fill: #e4adb9;
      }

      .st34 {
        fill: #e3d8d7;
      }

      .st35 {
        fill: #f6f3f2;
      }

      .st36 {
        fill: #e6abba;
      }

      .st37 {
        fill: #743354;
      }

      .st38 {
        fill: #fcf5f1;
      }

      .st39 {
        fill: #5d1c40;
      }

      .st40 {
        fill: #685055;
      }

      .st41 {
        fill: #ae5f87;
      }

      .st42 {
        fill: #b38c92;
      }

      .st43 {
        fill: #835663;
      }

      .st44 {
        fill: #82415f;
      }

      .st45 {
        fill: #854c68;
      }

      .st46 {
        fill: #f2cee3;
      }

      .st47 {
        fill: #e3afbc;
      }

      .st48 {
        fill: #70334e;
      }

      .st49 {
        fill: #d4a4c2;
      }

      .st50 {
        fill: #844b60;
      }

      .st51 {
        fill: #bc759f;
      }

      .st52 {
        fill: #7a3855;
      }

      .st53 {
        fill: #be7ba2;
      }

      .st54 {
        fill: #e2d4d2;
      }

      .st55 {
        fill: #c694b4;
      }

      .st56 {
        fill: #c2909f;
      }

      .st57 {
        fill: #793a5d;
      }

      .st58 {
        fill: #a58b90;
      }

      .st59 {
        fill: #6a394f;
      }

      .st60 {
        fill: #191515;
      }

      .st61 {
        fill: #b08c95;
      }

      .st62 {
        fill: #efb7c4;
      }

      .st63 {
        fill: #edbdc7;
      }

      .st64 {
        fill: #fce7e7;
      }

      .st65 {
        fill: #eedec7;
      }

      .st66 {
        fill: #6f2d52;
      }

      .st67 {
        fill: #915972;
      }

      .st68 {
        fill: #caa1b9;
      }

      .st69 {
        fill: #ab768b;
      }

      .st70 {
        fill: #da9baf;
      }

      .st71 {
        fill: #eae1df;
      }

      .st72 {
        fill: #b58f97;
      }

      .st73 {
        fill: #753356;
      }

      .st74 {
        fill: #f6efe0;
      }

      .st75 {
        fill: #bf9ea9;
      }

      .st76 {
        fill: #e8dfde;
      }

      .st77 {
        fill: #cdafa9;
      }

      .st78 {
        fill: #ba8cab;
      }

      .st79 {
        fill: #dd9fb2;
      }

      .st80 {
        fill: #edbac6;
      }

      .st81 {
        fill: #e4afbc;
      }

      .st82 {
        fill: #c294b1;
      }

      .st83 {
        fill: #f6e1e5;
      }

      .st84 {
        fill: #f3e6d6;
      }

      .st85 {
        fill: #ead7c5;
      }

      .st86 {
        fill: #e0abb6;
      }

      .st87 {
        fill: #b27a96;
      }

      .st88 {
        fill: #eabac4;
      }

      .st89 {
        fill: #dca1b1;
      }

      .st90 {
        fill: #773556;
      }

      .st91 {
        fill: #9a647b;
      }

      .st92 {
        fill: #efbdc6;
      }

      .st93 {
        fill: #e4b5d2;
      }

      .st94 {
        fill: #e3acb9;
      }

      .st95 {
        fill: #8d5b6e;
      }

      .st96 {
        fill: #e2aab8;
      }

      .st97 {
        fill: #e4c9ce;
      }

      .st98 {
        fill: #925e6a;
      }

      .st99 {
        fill: #f9d4d8;
      }

      .st100 {
        fill: #f6d9db;
      }

      .st101 {
        fill: #c494b3;
      }

      .st102 {
        fill: #a26f84;
      }

      .st103 {
        fill: #eda4c4;
      }

      .st104 {
        fill: #8f4f6d;
      }

      .st105 {
        fill: #e6b4be;
      }

      .st106 {
        fill: #8b5169;
      }

      .st107 {
        fill: #f7bfd8;
      }

      .st108 {
        fill: #713253;
      }

      .st109 {
        fill: #d8c8c7;
      }

      .st110 {
        fill: #793959;
      }

      .st111 {
        fill: #80445e;
      }

      .st112 {
        fill: #834664;
      }

      .st113 {
        fill: #c691a9;
      }

      .st114 {
        fill: url(#linear-gradient);
      }

      .st115 {
        fill: #ad7686;
      }

      .st116 {
        fill: #9c7666;
      }

      .st117 {
        fill: #343332;
      }

      .st118 {
        fill: #d3a8b1;
      }

      .st119 {
        fill: #965c72;
      }

      .st120 {
        fill: #834161;
      }

      .st121 {
        fill: #c87d9c;
      }

      .st122 {
        fill: #e1cab7;
      }

      .st123 {
        fill: #9c5e77;
      }

      .st124 {
        fill: #f8d5d9;
      }
    </style>
    <linearGradient id="linear-gradient" x1="-708.1" y1="792.24" x2="-650.84" y2="960.78" gradientTransform="translate(791 -735)" gradientUnits="userSpaceOnUse">
      <stop offset="0" stop-color="#fbeaec"/>
      <stop offset=".1" stop-color="#f6cbd1"/>
      <stop offset=".75" stop-color="#f9d3d7"/>
      <stop offset="1" stop-color="#e5b2d1"/>
    </linearGradient>
  </defs>
  <path class="st82" d="M34.2,118.85c1.19,2.36-2.81,5.69-5.17,6.11-.68,9.15,5.4,16.91,14.44,19.81,18.38,5.89,22.29-5.43,24.14-4.88,1.5.44,2.49,1.64,2.64,2.74.39,2.94-3.77,3.83-5.09,4.26,2.76,4.46.87,12.38-4.96,10.94-1.13,1.38-2.84,2.09-5.12,2.13-4.36.04-8.68-.28-12.96-.96-.76,1.27-2.37,1.32-4.84.13-.64-.8-2.26-.83-3.16-1.09-11.66-7.81-14.66-19.1-8.93-31.77,2.34-3.11,3.48-5.84,6.93-8.23,1.04-.27,2-.42,2.09.8Z"/>
  <path class="st5" d="M51.11,182.12c.77.42,1.94,2.28,1.43,2.97l-2.23,2.98c.16,2.19-.36,3.18-2.3,1.9-2.97-1.13-2.79-2.14.23-2.88-1.91-4.21-3.67-6.72-8.25-4.61-4.55-2-6.95-1.82-7.21.52-6.07,1.19-12.18,2.4-18.35,3.63l-.29,1.33c3.41-.4,7.85,1.92,2.92,4.07-.56,2.98-6.76,7-9.87,7.06.3,1.4,1.71,1.98,4.23,1.75,5.66-.75,4.69,2.7-2.9,10.35,8.23-2.03,4.64,7.1,1.66,10.99,4.49.03,4.53,9.4-.19,9.71,1.79.09,1.67.51-.34,1.27l1.34,1.47,7.43-4.18c3.37-.4,3.85,2.53,3.44,5.31,4.04-2.08,7.46,2.46,3.12,4.18.05,2.48-1.05,2.45-1.87.09-1.54.07-2.86,1.18-4.91,1.03-.38-2.03.52-3.8-.83-5.53-4.3,1.93-8.14,3.93-12.27,2.42,4.2-14.65,3.67-4.79,2.69-21.31-3.42.72-5.32,2.08-7.79.18,2.69-4.29,4.53-8.99,8.17-12.47-2.36-.95-4.1-1.02-6.21-2.66,2.1-4.64,5.91-7.7,10.8-10.54-1.94-1.83-3.98-1.76-4.86-4.58,4.04-4.51,20.52-7.62,20.16-6.96.28-.5-.63-1.77-.66-2.85,2.48-1.39,6.21.41,9.04-.12l4.54-.85c4.07-.76,6.72,4.48,10.12,6.35Z"/>
  <path class="st90" d="M136.95,32.2l2.04,1.42c-.82,1.9-1.41,4.07-1.79,6.51l-1.75,7.96c-.27,1.24,2.32,2.3,1.23,3.14s-2.29,1.19-3.35,1.08c-3.15-.79-2.72-3.81-.19-5.23-1.36-2.29-1.4-5.2-.11-8.73-3.74,2.89-8.42,3.15-7.43-2.85,2.5-4.51,3.89-9.14,4.17-13.9-2.52,1.68-4.47-.13-4.71-2.99-7.36,6.03-10.46,7.8-11.38-3.87-2.06-.31-3.18-1.19-3.36-2.65-.88-.27-.88-.61-.03-1.03.88-1.89,5.74-3.24,6.48-1.26,1.01,2.73-.17,5.69,2.11,7.46,3.03-1.45,5.37-3.2,8.48-4.15,3.48-1.06,6.82,2.34,6.62,6-.28,5.36-2.06,9.97-2.72,15.26,2.91-1.52,3.74-2.34,5.69-2.18Z"/>
  <path class="st14" d="M194.1,53.04c.88.3.87.66.01,1.07,1.29,3.87-2.34,4.18-5.6,2.47-.71,3.41-2.24,5.63-4.57,6.67,1.43,2.4.92,3.13-1.85,2.79-2.56,1.27-3.11.09-1.01-1.88-2.03-1.77-.64-6.33,2.18-6.26-2.73-1.49-.84-5.7,2.03-4.96l-.94-3.01c2.48-5.46,4.51-11.08,6.09-16.85l2.43-1.91c-1.78-2.06-.42-4.03,2.23-4.28-2.37-1.55-2.13-2.65.69-3.03.02-1.9-.2-3.42-.66-4.58,1.19-3.89,2.73-7.6,4.62-11.13-2.98-.37-2.56-2.72.28-3.11-2.24-2.23-2.03-2.79,1.06-2,2.7,5.68-.3,12.44-2.37,18.61l-8.42,25.16c1.54,2.14,1.13,5.77,3.78,6.22Z"/>
  <path class="st110" d="M99.94,9.15l.3,2.63c-3.32,1.35-5.57,3.38-6.73,6.08-.74,5.47-2.21,7.14-4.39,5l-2.73-1.02c-.38,3.45-1.55,5.83-3.49,7.12l-.47,2.54c.78,5.88-.29,7.89-3.22,6.03-.06,2.33-.74,4.14-2.04,5.43l.77,3.22c-2.92,2.21-3.86.83-2.83-4.13-2.49-1.58,1.08-9.25,1.16-9.34.54-.58,3.03-.48,3.42-1.2.67-2.71,3.41-25.5,9.92-16.43,1.65-4.22,5.9-5.85,9.5-8.03,2.23.11,2.47.64.83,2.1Z"/>
  <path class="st44" d="M60.19,157.83l1.05.79c5-3.34,17.96-1.82,23,.83,3.96,2.08,5.01,4.29.28,5.8-3.86-.72-18.37-2.45-21.16-1.22s-3.8,4.22-2.99,7.02c-.11,2.25-.84,3.41-3.3,3.04-.93,1.19-2.52,2.37-3.81,2.81-.71-2.57.61-5.24,2.84-6.79-.12-1.22-2.27-2.31-1.89-3.41s1.62-1.97,2.91-2.85c-1.15-2.82-3.68-2.69-6.01-2.8-3-.01-5.99-.21-8.95-.6l-.05-1.45c9.33,1.54,15.23-3.07,18.09-1.17Z"/>
  <path class="st111" d="M193.68,168.21c-1.98,1.91-2.29,1.4-1.51-1.1-3.96-2.78.61-6.72,4.39-3.91,1.94-1.71,3.75-3.77,5.42-6.17,4.24,2.61,6.03.17,5.39-7.32,1.19-2.22,3.74-2.71,7.64-1.46.96-2.64,1.38-5.07,1.26-7.29-3.08.39-3.27-2.23-1.07-3.93l-.87-1.81c1.32-1.49,3.57-2.49,6.74-3.01-1.14-2.28-1.62-3.63,1.03-2.17,1.05,1.54,1.88,3.6,2.12,5.85-2.13,1.59-4.41.81-6.97,1.85.99,4.27,2.95,8.62,1.45,12.93-1.08,3.11-4.28,2.19-7.56.94.5,5.46-1.2,9.61-4.86,12.63l-3.65-2.59c-1.44,4.44-5.06,5.84-8.96,6.55Z"/>
  <path class="st116" d="M201.1,3.04c-.8.29-1.1,1.2-1.06,2l-1.19.67c-3.58-1.95-6.73-.47-9.45,4.46l-2.19.04c.68,2.57-1.04,6.35-4,5.04,1.26,2.41-2.29,7.92-5.09,6.87.88,3.43-.55,5.59-4.05,6.08,2.14,2.58-3.47,7.98-6.25,6.78-.89.28-1.15-.01-.8-.87,5.95-10.98,13.81-21.13,22.19-30.87C190.92,1.26,193.31.03,195.55,0s4.54.92,5.55,3.04Z"/>
  <path class="st73" d="M69.89,118.26c.95-.73,1.89-1.33,3.14-1.05,1.6-2.26,4.19,2.6,4.84,4.18.33.82.34,1.71.32,2.59-.61.64-1.34.9-2.2.78-2.58-1.89-5.78-2.36-8.05-5.75-.32-.48-1.5.67-.99,1.01.17.11-.05.6.01.91-.29,3.54-1.6,2.69-3.65.37-.38.08-.79-.25-1.18-.23-6.56-2.67-13.1-3.79-19.6-3.36-3.16,1.36-5.93,1.74-8.33,1.15-.78.04-1.81.08-2.09-.8,10.63-7.37,18.88-6.92,30.9,0,1.32-.29,2.7-2.61,4.12-1.65l2.77,1.86Z"/>
  <path class="st104" d="M75.17,78.94c3.94-1.07,4.58,1.46,1.93,7.59l.94,4.82c-1.58,5.62-3.03,11.22-4.35,16.79,2.67,3.06,1.14,6.09-.65,9.08-.6.54-.47,1.64-.88,2.25-.85,1.25-1.61-.77-2.26-1.21-1.06-1.63.43-4.2-.14-5.9-2.1-6.22,2.91-18.59,2.75-20.97-.23-3.34-2.02-6.08,2.06-9.02-1.91-.8-2.83-1.18-3.32-1.96-.86-1.41.15-1.61.86-2.32,2.52-1,3.54-.72,3.07.85Z"/>
  <path class="st106" d="M203.06,75.07c.75.86.63,2.11-.65,1.95-3.77.12-8.41-9.63-2.38-7.79,3.24-1.46,4.9-3.15,4.97-5.06-8.22,2.03-13.34-1.32-5.93-8.47-2.5.68-4.15.15-4.96-1.6v-1.07c2.81-1.47,6.28-1.26,10.39-.76s-4.72,7.61-2.08,8.35c3.82,1.08,8.75,2.48,8.76,7.23l-8.99,3.44c-.02,1.46.69,2.62.87,3.77Z"/>
  <path class="st9" d="M193.68,168.21c-2.48.45-1.24,3.34-.95,5.26,1.92,12.43-8.08,23.1-20.07,24.04-.47,1.28.39,2.55-.52,3.2-3.12.33-3.13-1.23-2.19-3.67-1.29-2.51,1.05-5.35-.59-7.85-1.4-1.19-.86-1.81.86-.89,2.06-.84,3.48.72,4.26,4.69,8.35-1.36,15.86-9.25,14.38-18l1.12-2.15c-4.53.67-1.68-3.58,1.15-4.59-1.16-1.58-.67-2.12,1.02-1.13l1.51,1.1Z"/>
  <path class="st37" d="M79.92,246.71c-.44.21-.54.99-.82,1.34-1.41.21-2.8,1.12-4.19.9-1.46-.23-3.34-3.7-3.98-2.84l-2.98,3.98c-2.51,3.34-4.42-9.21-4.79-9.6-1.11-1.17-2.48,1.21-5,.14-.47-.2-.39-1.26-.79-1.55-.88-2.73-.88-4.18,1.77-2.02,5.36-2.8,7.6-3.45,9.23,5.01,2.55-3.23,5.07-1.15,7.52.96,3.84.29,5.19,1.52,4.03,3.69Z"/>
  <path class="st28" d="M50.26,233.89c.08,1.83-.21,3.59-1.49,5.27-1.16,1.52-3.43-.46-5.25.21-2.6.96-3.04,5.58-5.89,6.27s-4.04-3.72-5.03-5.79c-2.92,1.12-4.91,3.28-7.99,3.88-1.31.26-1.8-2.63-1.51-3.71l1.87-.09,6.74-4.48c2.56-.66,4.54.88,5.93,4.62,2.78-6.01,5.75-7.88,8.91-5.61-.03-1.69.55-2.37,2.42-2.39,2.84-2.38,4.06.02,1.28,1.81Z"/>
  <path class="st57" d="M34.1,158.04c-3.86-1.09-6.54-3.78-8.85-7.06-5.66-8.04-5.53-17.45-.08-24.72.63.93.47,2.54-.1,3.9-3.81,9.21-.97,19.19,7.18,24.93,1.14.8,1.73,1.86,1.85,2.94Z"/>
  <path class="st123" d="M80.36,68.57c4.52-1.69,5.69,1.99,5.91,5.79,7.05.82-.15,7.67-4.46,2.16-2.33,3.21-4.54,4.01-6.64,2.4-.78-.56-2.16-.65-3.07-.85,1.06-1.06,2.4-1.23,4.1-2.04,1.42-.69.88-2.97.9-4-.9-2.28,2.64-.66,2.47-.66-1.73.02-5.24-1.22-4.3-3.3-1.28-1.29-.74-2,1.06-1.61,2.62-1.41,3.69-.85,4.04,2.11Z"/>
  <path class="st95" d="M222.1,130.04c-1.1.05-1.05,1.32-1.03,2.17-3.28.87-7.01-4.27-3.83-6.36-1.88-.69-5.63-4.41-4.87-6.72.65-1.99,6.33-3.04,8.57-3.38-1.14-1.73-.46-2.12,1.15-.7.44.68,1.91.64,1.99,1.63.23,3.06-5.15,3.21-5.87,4.77,2.41,2.88,2.19,6.11,3.89,8.6Z"/>
  <path class="st13" d="M110.3,11.06l.03,1.03c1.4,1.94-3.49,8.2-5,8.24-2.84.07-5.23-8.47-5.38-11.17-.6-.29-.56-1.61-.83-2.1,1.8-1.09,2.82-1.09,4.15.56,1.23,1.53,1.68,3.1,2.05,5.59,1.87-.38,3.53-1.59,5-2.13Z"/>
  <path class="st112" d="M55.07,229.2c2.59-4.13,7.21,5.86,4.07,7.85-1.09-.03-1.3,1.26-1.77,2.02-1.34-.78-1.02-2.92-2.05-4.24-1.18-1.51-3.71-.65-5.07-.95-.04-.84-.2-1.89-1.28-1.81-1.69-2.38.32-4.25,3.08-4.11.94-.33,1.47.16,1.6,1.45l1.42-.22Z"/>
  <path class="st45" d="M76.33,66.47c-.2.61-.52,1.23-1.06,1.61,0,.98-.29,1.03-.86.19-1.31-.17-2.65-.74-3.42-1.67s-1.56-2.97-.53-4.11c1.5-1.66,3.83-1.85,5.53-2.42.18-2.44.92-3.06,2.22-1.87,3.92,1.02,3.32,3.02-1.8,6.02l-.09,2.24Z"/>
  <path class="st119" d="M201.1,91.04c-3.49.34-4.34-1.55-2.55-5.69l-.42-2.49c-.76,1.56-1.12,1.27-1.07-.88-4.18-1.42-3.02-2.58,3.49-3.5l1.86-1.46c.15-.58.76-1.26.65-1.95,1.64-1.57.99,8.45.9,10.09-1.29-.37-3.76-1.74-3.76-.45,0,2.66,1.32,4.4.9,6.32Z"/>
  <path class="st120" d="M172.15,200.71c-3.48,2.49-.75,6.4-4.06,7.25-.46-.21-1.11-.42-1.4-.92-.43-.72.47-1.55.81-2.43.71-1.81-1.56-3.49-.66-5.02.36-.61,1.95-.54,2.49-.8.65-.31,1.01-.92.63-1.76.81,1.12,1.94,2.19,2.19,3.67Z"/>
  <path class="st69" d="M201.1,91.04v2c-.84-.94-1.99-1.67-3.45-1.41-1.32.24-2.33,1.62-3.48,2.51-2.4-.44-2.71-2.66-.07-3.23-1.44-2.19.39-4.76,2.99-3.78-2.15-1.93-1.07-2.92,1.03-4.26,2.19,1.42-.5,5.28,2.97,8.17Z"/>
  <path class="st91" d="M77.16,42.96c3.89-1.08,6.56,7.98.91,8.37,1.2,2.87,1.24,5.17.14,6.88-.72.55-1.33,1.56-2.22,1.87-.52-5.44-3.91-11.05-.89-18.03.3.19.72.5.84.85.24.69-1.02,1.22-.84,2.34.23,1.42,1.25.14,1.57-.23.52-.6.52-1.4.49-2.05Z"/>
  <path class="st39" d="M42.1,159c6.93,2.76,4.96-.67,9,2.05-4.76.96-10.61,2.1-13.84-1.91,1.23-.93,3.38-.72,4.84-.13Z"/>
  <path class="st113" d="M77.1,72.04c-.93.03-2.02-.14-2.54-.97s-.33-1.91-.15-2.8c.23.03.67-.06.86-.19l5.23,2.93c-.88,1.58-2.29,1.01-3.39,1.03Z"/>
  <path class="st75" d="M210.1,99.04h-9.85c-.55-1.5,0-2.45.85-3-.53,4.25,3.72.15,9,3Z"/>
  <path class="st51" d="M150.78,213.64c.92,3.31.48,6.63-1.15,10.12-5.9,12.7-15.44,23.44-27.36,30.43-5.37,3.14-9.9,3.51-15.07,2.66-4.56-1.57-1.87-10.08.06-13.43,4.71-6.58,9.96-12.63,15.75-18.17,6.23-4.63,17.72-16.64,27.77-11.61Z"/>
  <path class="st94" d="M77.18,224.9c1.01-1.05,2.18-.64,3.52,1.24,2.65.4,5.12,2.02,7.41,4.85-.58,2.02,1.7,4.1,1.4,6.17-1.87,13,2.18,8.31-.47,14.11l-6.12-6.59c-1.12.65-2,1.54-3.01,2.03-1.13-1.81-3.82-.99-5.39-2.21l-3.37-2.62c-1.39,1.49-2.23,3.09-3.8,3.86l-2.75-9.47c-1.71.8-2.36,1.68-3.48,2.13-.78.32-1.74-.3-1.99-1.36-3.69-11.19-3.04-6.44-4.07-7.85-2.04,1.57-2.63-5.11-2.3-5.89.94-2.22,7.97-6.05,10.45-5.2,1.28,2.56,1.22,5.29.92,8.39,1.84-.56,3.32.87,4.69.66,1.19-.18,2.06-2.93,3.89-1.92s3.44.75,4.46-.33Z"/>
  <path class="st100" d="M177.3,63.24c4.01,1.52,2.46,6.57,1.11,9.62,3.37.72,4.01,12.11.85,13.28-2.93.46-6.33-.58-7.63-3.5-.95,4.68-1.27,9.53-.94,14.54l-2.4.79c-1.93,1.56-3.34.95-3.29-1.65.3-.94,2.65-1.06,1.83-2.66-.4-.77-2.49-1.46-2.74-2.46-.61-2.45-.59-4.83-2.93-6.1-1.93-1.51-1.35-3.27,1.74-5.28-2.43-4.29-5.11-8.46-8.06-12.49-.67-2.5-.49-4.68,2.07-3.26.8-1.66,2.58.44,2.25,1.96.14.79.96,1.56,1.63,1.73.81.2,1.99-.77,2.93-.3,1.28.64,1.92,2.26,3.01,2.5s2.48.09,3.13-1.28c-2.89-3.72-5.92-7.49-8.9-10.92-.55-1.54-.53-2.28,1.11-1.76,1.55-.86,2.87-2.2,3.96-4.02l2.32.15c.36-1,1.14-1.85,1.75-1.46,2.73,1.74,9.4,9.75,7.2,12.59Z"/>
  <path class="st80" d="M133.14,47.07c-.45,1.61.2,3.6.19,5.23-.01,1.09-1.1,2.19-2.08,3.28,1.54,3.02-.16,5.06-1.97,7.48-1.94,2.6-1.71,6.67-5,7.94l-1.47-.65-.8-6.29c-.53.06-.96.07-1.04-.09-.74-1.54-5.39-11.95-5.29-12.63.07-.45.28-.87.52-1.29-1.73-2.04-3.16-4.09-4.3-6.17-1.68-.32-3.22-1.61-1.63-2.84-4.05-7.72,6.52-3.72,10.01.28,1.26,4.63,3.51,7.48,6.75,8.54,1.37-2.71,3.94-6.45,6.12-2.79Z"/>
  <path class="st23" d="M177.1,41.17c.05,2.17-1.38,4.27-4.28,6.31-2.54-.33-3.52.25-2.93,1.74,2.08,1.76,1.18,3.32-1.53,2.9-1.23,1.93-2.77,3.52-4.47,5.73-.72-.72-1.15-1.37-1.81-1.85-2.2-1.1-1.96-5.58-1.15-7.88-.4-.8-1.01-1.51-1.17-2.51s1.36-1.39,1.47-2.15c2.97-1.77,4.55-5.51,6.59-8.47,1.65-2.4,4.77-4.36,6.25-6.78,6.32-.99,8.81,5.94,3.85,10.21l-.82,2.75Z"/>
  <path class="st62" d="M111.01,55.03c2.51,1.4,4.42,4.43,1.25,6.32-4.49,2.37-7.38-4.42-9.7-2.87-1.65,3.41-.42,7.37.72,10.53.71.76-11.57-9.89-11.07-7.71-1.51-.82-1.42-2.16.27-4.01-.7-4.02.18-6.1,2.62-6.24,1.25-1.18,1.53-.55.84,1.04l2.28.27c.78-3.38,2.49-6.63,6.41-5.96,1.52.26,8.3,6.68,6.38,8.63Z"/>
  <path class="st118" d="M140.21,127.86c1.15,1.82.19,3.07-2.89,3.77l-.31,1.38c2.58.83,3.21,1.83,1.87,3.02.41,2.21-3.26.17-3.07.17,4.82.09,4.26,4.06,2.33,7.34l-.09,2.28,1.46,2.19c4.82,0,6.18,2.81,4.08,8.46,4.47-3.05,8.26-2.67,7.09,3.66,2.33,2.42,2.43,4.07.29,4.95-.66,1.87-1.69.47-1.45.38.97-.35,1.35,2.64-.34,2.45l-6.29-3.05c-1.38-1.81-4.73-6.29-2.92-7.63-1.05-2.74-2.75-4.9-5.94-5.38,4.1-14.78-.16-8.56-.37-11.96-.19-3.11.73-6.36-3.91-8.12l6.97-4.8,1.4.05c1.33-.98,2.29-.95,2.08.84Z"/>
  <path class="st79" d="M116.06,55.85c2.05-.84,3.84,4.37,4.4,6.49,1.52,5.68.55,9.25-4.27,12.74l-1.25-.03c1.62-9.45-1.91-9.84-2.68-13.7l-1.25-6.32c1.72-1.59,3.87-1.15,5.05.82Z"/>
  <g>
    <path class="st114" d="M159.15,35.93l.37-1.01c9.17-2.09,5.81,4.13,1.71,8.54,1.63,1.33,1.03,3.25-.31,4.66-.38,3.24-.36,6.45.04,9.64,4.65.82,13.62,10.63,8.71,13.77-2.3,1.47-5.35-.21-6.61-2.25-2.51,1.28-5.39-1.01-3.91-3.26-1.84-2.76-3.43-5.7-4.76-8.81-.86-.27-.91-.66-.16-1.16-1.12-4.69-4.01-.31-5.15,2.56-2.63,6.65-.05,14.08,4.35,19.31.95,2.48-1.1,4.32-3.54,4.23,1.1,5.36-1.43,8.51-6.57,5.6-1.7,1.08-3.43,1.4-5.05.01-3.82,7.26-6.7,15.18-.65,21.96,10.04,6.38-2.77,9.8-7.44,4.28-2.75.78-5.49-1.41-6.07-4.06-6.1-5.48-8.68-5.4-7.75.23l-1.25,1.71c2.75.34,4.03,1.47,3.84,3.4.65.59.47.82-.46.75-1.08,2.24-.85,3.16.69,2.77.58-5.19,9.97-2.64,10.9,1.46,4.49-1.43,8.94,2.13,6.63,6.72,1.01.79.35,1.71-1.97,2.74-1.21,1.52-1,3.35.64,5.47-1.18,1.17-.73,2.91,1.35,5.21-.19,3.75-.32,7.26-.39,10.54l-2.32.92c-.82,3-3.99,2.1-6.44,1.2-2.52,2.35-5.36,2.7-5.79-1.2l-2.07-.72c-3.47,3.33-7.06,1.77-7.46-2.88-5.69-1.98-5.79-1.36-.32,1.88-.13,1.84.88,2.81,3.04,2.9l2.04,2.67c7.2,1.31,14.23,3.34,21.09,6.09,2.63,7.47,7.62,13.28,14.98,17.43.7,3.65-1.25,4.84-5.87,3.57l-1.26.72c-1.63-1-2.94-.79-3.95.64-2.75-1.42-4.01,3.89-1.24,4.51,3.58-2.91,6.35-3.44,8.32-1.59.88-5.32,7.98-4.01,11.91-1.25,3.5,2.45,3.7,5.06-.39,7.05,4.28,3.21,3.05,5.32-3.69,6.32,2.09,4.83.06,12.77-4.88,7.92l-1.66-.05c-5.96-9.43-17.51-12.46-27.84-9.12l-1.32-.93c-.78-1.63-1.42-1.31-1.94.96v1.46s-6.6,3.85-6.6,3.85l1.23.99,2.04.27c9.42-5.38,21.87-7.1,29.69,1.85l2.39-.4c2.53-.64,4.76,5.31,2.79,6.81l-.06.83-1.86,1.37c-8.38-.57-16.1,2.97-23.14,10.62l-2.77-.38c-5.58,5.21-10.55,10.97-14.93,17.3-7.13,3.51-19.34-8.91-12.94-15.66l4.02-9.81c-1.41-.12-2.96,1.53-4.19,4.06-.54,2.13-1.44,3.39-2.71,3.78-.93.79-1.92.61-2.97-.53l-6.69,2.76c-2.74-2.45-4.55-3.2-5.42-2.25,1.7,3.25-2.39,3.53-5.05,2.23-1.04,2.21-6.59,2.23-7.82,1.06-2.32-2.2-3.23-7.55-1.09-10.09-2.06-.24-4.2.4-6.44,1.9-4.59,2.78-6.17.28-4.74-7.49-1.09-.17-2.4-.57-3.94-1.21-5.1,3.04-1.17-4.9.47-7.88-.11-2.27.43-3.64,1.61-4.1-5.38-.2-5.38-2.5,0-6.91-.77-1.74-.73-3.18.13-4.33l-.84-.72c1.11-1.55,1.66-3.29,1.65-5.24-.44-2.07.34-4.1,2.14-5.23.38-1.97,1.69-3.95,3.81-2.81,1.66-3.47,4.05-.62,3.54,2.61,6.33-.1,9.21,1.86,8.65,5.87-6.13,3.54-5.43,3.61,2.12.21-1.56-3.1-.18-6.02,4.13-8.75-1.67-4.59,6.85-9.46,11.15-9.52l-.24-1.45c6.34-4.43,1.42-5.45-3.4-5.88-.99-3.59-2.47-4.67-4.43-3.25-1.97.2-3.7-.66-5.18-2.57-3.62.96-8.74-.24-8.25-4.47l.55-2.26c2.19.43,3.03-2.92,2.18-2.38-10.01,6.34-14.5,8.68-26.63,3.84-6.18-2.46-16.73-12.55-14.11-19.62.31-.84,1.07-1.28,1.89-1.52l2.11-.78c8.27-7.54,18.6-8.58,30.99-3.12.56-.74.95-.66,1.18.23,1.62.99,3,1.55,3.65-.37-4.95-1.83.68-5.28,3.63-.47,2.33-.82,4.7,2.25,5.4,4.3,2.89,1.13,5.95,1.95,9.18,2.45l.94-2.03c-6.63-1.14-10.57-5.81-8.92-12.43-2.26-2.51-2.48-5.18.46-7.12-1.32-4.14-.72-9.24,2.06-13.09-.87-7.52,4.25-9.57,15.37-6.13.75-1.95,2.27-3.5,4.56-4.66l2.15-3.23c2.74.92,5.17,1.14,7.3.66,1.28-3.68-.12-6.4-4.23-8.17-1.16.92-2.44-.91-1.59-1.99-1.53-1.71-2.68-3.54-3.45-5.49-.41-8.36,3.74-9.09,12.43-2.18,5.31.86,6.22,9.55,2.68,13.7-.48,4.47.67,8.38,3.46,11.73.08-5.33,2.11-12.13,5.87-15.78.83-4.44,2.66-8.58,5.48-12.44-.39-3.21-.17-6.5,3.58-6.25.95-3.81,1.81-7.74,2.6-11.8l1.28-.37.59-5.44,1.22-.54c2.85,1.95,4.59,2.53,5.22,1.73l4.37-6.76c3.03-4,4.8-2.45,5.32,4.65.62,1.88,2.36,2.6,5.23,2.16Z"/>
    <g>
      <path class="st96" d="M134.05,151.86c2.54-3.29,8.27,1.53,5.94,5.38-.34,2.58,1.05,5.77,2.92,7.63,1.88-2.58,6.7.16,6.29,3.05,1.24.86,2.55,1.35,3.92,1.46,5.22-3.28,7.91-3.18,8.08.31,4.6-1.77,7.4.31,8.4,6.23l.77,4.08c-1.39,3.64-1.72,6.7-1,9.17,2.1.9,2.62,6.85.59,7.85,1.29,2.01,1.36,3.22-1.04,3.91.03,2.25-.25,4.59-.84,7.02,0,.72-.05,1.45-.13,2.17.28,1.69-.67,3.48-2.84,5.35,1.44,3.82-5.64,8.52-8.88,6.4-2.41,1.29-3.24-.45-2.5-5.21-1.47-2.21-3.22-7.07-1.69-9.54,1.04-.2,3.8-.31,3.8-2.02.01-3.19-1.74-5.79-.54-9.1,1.42,1.11,2.92.23,4.02.54l1.4.39c.25.07.6-1.11.38-1.41-.59-.82-4.17-.86-3.84-2.98.5-3.23,7.26.1,3.65-4.01-3.82-4.35-7.57-3.35-11.81-1.46-2.64.35-3.21-2.37-1.87-4.27.38-2.97,4.15-.81,5.04-1.69l-10.77-8.44c-3.2-2.51-2.86-9.77-6.33-10.57l-11.21-2.6c-2.93-.68-4.58-2.28-7.53-1.97-1.08-.09-1.95-3.18-3.02-3.15-1.3.04-2.91,1.2-4.08.65-1.54-.71.43-2.51,1.65-3.15-2.88-2.49-6.43-3.24-8.83-6.55,2.6.06,4.66.08,6.79-.39.82-.18,1.75,1.85,2.63,1.47l2.34-1.03c.62,1.93-.18,5.13,2.04,5.67,1.61.39,2.35-2.61,3.45-2.46s1.84,1.77,2.79,1.31c1.08-.52,1.65-1.55,3.39-1.78.69,2.23-2.25,2.91-2.17,4.99,2.26.12,2.87-3.23,4.31-2.29,2.44,1.6,4.36.72,6.32,1.01Z"/>
      <path class="st22" d="M157.07,35.17c1.61-.63,2.31-.37,2.08.76l-5.9,2.97c-.54-3.93.13-7.44-1.68-10.76-3.35,2.61-4.82,6.13-7.31,9.41-1.96.22-3.45-1.12-5.68-2.03.66,1.67-1.1,3.32-1.39,4.61-.43-2.62-.1-5.29-.25-7.93,2.29.2,4.04.92,6.31,3.4,1.61-3.23,6.7-13.06,9.9-10.13,2.06,1.89-.34,9.38,3.9,9.7Z"/>
      <path class="st98" d="M167.02,34.12c.32.21.51.62.8.87,2.45,2.34-3.72,11.36-6.59,8.47.33-2.12,3.31-3.67,2.87-6.37-.33-2.01-3.76-1.48-4.95-1.16-.63-.38-1.34-.7-2.08-.76,2.75-1.69,7.11-2.95,9.96-1.05Z"/>
      <path class="st47" d="M57.06,174.09c2.92-3.72.09-7.11.22-6.72-.42-1.28,1.6-1.31,1.99-2.02,2.72-5.01,7.25-3.47,11.03-3.27,5.39.28,10.34-.75,16.28,2.01-3.5-5.11-8.99-3.28-13.15-5.39-.57-.29-2,1.73-2.54,1.09-3.05-3.67-5.09.59-11.9.48.22-1.45.9-1.84,1.2-2.43,9.03-7.11.9-9.61,4.96-10.94,2.93,2.66,6.98,4.52,10.55.56.79,2.5-.34,3.55.49,4.08,3.05,1.93,6.75-2.91,7.32-.24.33,1.55-.76,3.42.6,4.31s2.9-.14,4.24.2c1.72.43,2.42,2.98,3.85,4.26-3.87,5.93-10.58,6.97-15.95,12.51,1.9,1.23,3.84,1.18,3.8,3.37-3.78,0-6.74,1.52-7.89,4.88,1.15,1.2,2.79,1.11,2.83,3.05-10.76,2.47-4.49,5.09-16.22,1.45,1.43-3.12,9.65-1.5,9-4.76-.1-.49-1.28-1.02-2.05-1.12l-7.57-1.03c.38-1.65.67-2.58.55-3.64-.07-.58-1.07-.67-1.66-.68Z"/>
      <path class="st33" d="M103.28,69.01c.57.61.9,1.47,1.59,1.99,4.59.75,5.75,3.72,4.23,8.17-.53.9-.46,3.54-1.91,3.64-1.76-.14-2.18-2.3-4.61-3.03-.26,3.29-2.75,4.35-5.09,5.73-.69.41.05,2.98-.84,3.25.55-.16-13.09-2.02-13.12-2.02-3.17.29-1.19,5.17-2.07,6.75-1.46,2.6-3.31,5.05-2,8.43.2.52-1.53,1.65-.76,2.17s1.65.86,2.37,1.68c-1.42,1.38-4.35,1.85-3.59,3.95.43,1.18,2.14,1.78,2.2,2.79.03.61-1.68,1.99-1.33,2.5,1.12,1.61,1.24,3.95,1.45,5.55,2.23.85,5.16,2.17,6.32,4.62.78,4.04-7.56,1.68-7.92-1.2-5.95-3.49-2.03-4.54-5.16-6.76-1.91-1.35-.35-3.61.33-5.54.11-.87-1.44-1.91-1.78-2.6-.51-1.01.81-2.36.95-3.16l.99-5.72c.56-3.25,1.39-6.02,2.6-8.94-3.64-8.98,3.97-8.82-.95-12.32,2.37-.6,4.09-3.07,6.36-4.24,1.72.11,3.76,3.04,6.2,1.87-.49-.8-1.15-1.44-1.46-2.2-.34-2.82,2.11-3.62,7.37-2.38.59-1.56,2.41-2.01,5.46-1.36-2.87-1.65-4.91-3.8-6.14-6.47-2.91.52-3.63-1.65-.75-2.86.5-.64,1.29-1.46,1.98-1.7,1.38-.48,8.55,7.08,9.08,9.41Z"/>
      <path class="st19" d="M152.06,207.13c1.45,2.51,1.17,6.78,1.69,9.54l-.64,1.38-2.27-5.23c-1.07-2.47-1.4-4.55-2.79-6.81h-2.43c-8.22-9.26-20.74-6.96-30.31-1.05l-1.37-.66c-2.61,1.86-6.95,1.73-8.61,6.24-.49,1.32-2.71,2.82-4.44,2.27-.96-.3-2.62.19-3.58-1.79,4.54.11,6.21-2.08,8.42-4.42,3.85-4.08,9.18-5.83,13.58-8.61-.69-1.96.55-2.54,1.94-.96,11.95-3.77,23.73-.34,30.82,10.1Z"/>
      <path class="st64" d="M99.66,194.61c-9.79,3.31-5.18-5.73-21.9,4.05-.64-6,5.26-6.42,8.66-7.18,2.74-.61,5.39-3.7,8.47-2.31.72.32,2.19-1,2.85-1.11.92-.16,2.24,2.33,3.11,2.33,4.88-.03,9.83.39,13.37,4.58-5.17.76-10.12-1.85-14.54-.35Z"/>
      <path class="st18" d="M148.04,206c.26,1.52-1.19,2.21-2.45,2.46-1.37.27-1.68-1.55-2.66-2.27-15.39-11.46-28.52,5.35-29.01-1.9,4.89-3.49,10.32-6.76,17.14-6.55,7.06.22,13.55,2.72,16.98,8.27Z"/>
      <path class="st24" d="M92.26,224.92c-.66,2.48-2.78,3.83-4.14,6.06-.4.65-1.41.94-1.27,1.93-3.01-3.51-6.36-6.25-9.66-8.02-.58-2-.23-6.25-2.93-6.89-2.48-.59-4.22,2.54-6.62,2.71-5.44-10.27-1.39-13.36-.57-6.67.29,2.41,2.6,2.17,4.3,1.82,2.91-.59,4.19-4.06,5-3.49,1.38.96-1.65,5.69,3.29,7.14-.82,2.77.28,4.95,1.82,6.21,2.76-2.2,5.72-2.44,8.53-3.82,1.09.37,1.76,2.33,2.27,3.01Z"/>
      <path class="st27" d="M62.13,121.06c-4.06,3.14-10.59-3.32-21.84-.88-6.07,1.31-8.53,9.51-11.26,4.78.18-2.44,3.09-4.78,5.17-6.11,8.52-5.45,20.48-4.47,27.93,2.21Z"/>
      <path class="st36" d="M124.27,70.99c.66,5.19-6.33,11.45-2.9,17.46-3.68,2.35-6.38-2.04-7.52-5.35s-1.57-5.94,1.09-8.05c.46-1.71.86-1.72,1.25.03l3.83-3.92c.69-2.52,1.35-4.89,1.97-7.11.74,2.07,2,4.78,2.28,6.94Z"/>
      <path class="st6" d="M147.23,182.81c1.24.86,1.71,2.95,1.87,4.27-2.49,1.11-5.73.88-7.09,5.04-4.67-4.53-12.65-4.22-14.04-11.73,8.18,6.16,3.44.71,9.37,6.33,1.33-2.75-.19-4.55-.2-7.36,2.05.65,2.84,2.37,4.47,3.45.93-2.06.36-3.84,1.69-6,1.34,2.78,1.95,4.64,3.92,6.01Z"/>
      <path class="st89" d="M124.13,109.95c2.4.27,4.41,2.19,6.07,4.06,1.29,1.47.57,4.58,3.13,5.62-1.68.79-2.39.37-3.22.63-4.75-.75-5.12-3.91-10.9-1.46-2.35-.21-2.6-1.47-.69-2.77.13-.26.29-.51.46-.75-5.66-5.94.36-11.89,5.16-5.33Z"/>
      <path class="st12" d="M63.22,218.1c-2.47,1.83-5.08,3.35-8.05,5.33-1.64,1.09-1.08,4.43-.1,5.77.2.63-.27,1.57-.85,1.73-.82.23-1.63-.44-1.75-.92-.15-.59-.41-1.39-.41-2.05-2.71-.4-3.6-4.52-1.05-5.78-.91-2.34-1.21-5.08-.92-8.23-1.22-.9-1.88-1.78-1.99-2.65,1.59.23,3.12-1.02,5.21-.96,3.81.11-3.68,8.29-.79,9.22.14-.55,10.15-3.47,10.1-3.49.74.27.28,1.39.6,2.03Z"/>
      <path class="st88" d="M124.13,109.95c-1.44-.16-3.18-1.44-5.08-.7-2.29.89,2.61,5.37-.08,6.03-1.71-1.62-4.76-.28-6.74-2.77-.79-.99,2.08-2.12,2.36-2.94-.11-2.26-.37-4.86,1.79-6.75,3.31,2.05,8.45,3.54,7.76,7.12Z"/>
      <path class="st81" d="M125.32,180.14c1.79,3.95-5.27,4.82-8.02,6.35-1.28-1.21-2.16-2.11-3.35-3.56,2.05-1.76,2.88-3.92,4.59-5.75,1.13,1.42,1.59,3.69,3.24,3.41.74-.13,1.46-1.09,1.97-1.28.9-.34,1.28.21,1.56.82Z"/>
      <path class="st8" d="M93.87,132.88c3.39.15,6.27-2.99,8.43-3.1,3.11-.15,5.88,1.93,8.88-2.1,4.48,5.52-17.59,8.94-17.31,5.19Z"/>
      <path class="st52" d="M50.18,199.33c.7,4.11-4.91,10.83-3.34,11.73.38.22,1.04,0,1.26.25,2.12,2.39,3.94-2.42,2.91,10.88-3.6,4.43-4.51-3.5-3.72-6.95-2.08.21-3.16-.59-3.25-2.41-2.18-1.3-1.77-3.14,1.23-5.51-.79-2.3-.14-4.71,1.96-7.24-1.2-2.39-.22-2.64,2.94-.75Z"/>
      <path class="st92" d="M59.66,203.75c-.23-1.28-.51-3.5.39-4.79.57-.82,2.63-.6,3.33-1.01,1.01-.59.32-2.84,1.24-3.52,1.86-1.38,5.27.55,6.35,2.24-3.28,3.43-6.86,4.25-11.3,7.08Z"/>
      <path class="st48" d="M78.2,123.97c1.74,1.11,5.65,2.5,7.92,1.2,1.7,3.62,5.58,5.56,6.99,10.38-3.38-.49-5.01-5.43-7.56-6.58-3.89-.08-6.57-2.03-9.55-4.22-.46-.62-.01-1.18.34-1.11.72.15,1.57.13,1.87.32Z"/>
      <path class="st87" d="M66.96,120.92c.83-.1.94.82.9,1.32-.03.4-1.21,1.27-1.02,1.64,8.6,17.37,2.43,13.08,2.22,12.2-1.29-5.37-3.33-10.13-5.74-14.79,1.19-.25,2.75.91,3.65-.37Z"/>
      <path class="st11" d="M50.18,199.33c-1.03.02-2.12.06-2.94.75-.31.87-.67.86-1.08,0-5.83,1.03-3.34-5.78.85-7.78l1-2.32c.85-.48,1.7-1.09,2.3-1.9l1.06,4.32c.36,1.48-4.4,1.97-4.15,4.81.36.87,2.66.98,2.96,2.12Z"/>
      <path class="st38" d="M162.07,55.99c-.07.69-.64,1.31-1.11,1.76-2.32-2.67-3.14-7.63-.04-9.64,1.21,2.42,1.42,5.21,1.15,7.88Z"/>
      <path class="st62" d="M109.1,79.17c-.14-1.1.58-3.39-.74-4.33-1.68-1.2-3.75-1.67-3.49-3.83,2.01.65,3.14-.63,5.53-2.44.19,3.91.44,7.65-1.3,10.61Z"/>
      <path class="st86" d="M87.54,204.97c-.15,2.41-2.39,3.94-4.62,5.13-1.5-2.3.6-5.42,2.35-6.53.47-.17,2.3.87,2.27,1.4Z"/>
      <path class="st105" d="M159.16,66.01c-.21-1.21-1.65-1.26-2.25-1.96-2.48.71-2.7,0-2.56-2.26-.19-1.53-.12-3.07.05-4.59,2.43,2.3,4.21,5.33,5.8,8.56-.43.41-.91.51-1.05.26Z"/>
      <path class="st32" d="M135.4,62.89c-.54-2.28.31-4.65,1.16-6.99,2.33,2.58.78,4.09-1.16,6.99Z"/>
      <path class="st88" d="M119.2,118.79c-.73.31-1.05,2.31-2.12,1.5s-1.85-1.69-1.45-2.34c.75-1.2,1.75-1.65,2.88-1.93.38.88.61,1.81.69,2.77Z"/>
      <path class="st25" d="M121.23,197.03c-.57.18-1.43.63-1.94.96-.33-.75-1.15-1.8-.9-2.43.29-.72,1.7-1.8,2.31-1.41.84.54.79,2.28.53,2.88Z"/>
    </g>
  </g>
  <path class="st102" d="M180.22,168.21c1.41-1.21,1.85-.64.74.87,1.92,2.58-.87,6.1-3.83,4.95,1.55,3.11-1.25,3.64-4.16,2.74,1.31,4.38.02,8.05-2.74,11.52l-.86.89c-.77-.49-1.44-1.13-1.83-2.05-.5-1.19,1.13-1.93,1.5-3.5.96-4.12-.52-10.57-3.88-13.16-1.26-.97-3.34,1.26-3.95-.78-1.15-2.94-.54-2.72,2.06-1.64.08-.78.27-1.55.81-2.14.89-.97,9.41,1.69,11.26,2.66,1.79-1.37,3.41-1.49,4.87-.37Z"/>
  <path class="st72" d="M150.99,165.09l1.97.98c4.16-2.42,10.5-4.85,10.31,1.98l-2.06,1.64c-.44-1.45-4.02-1.95-4.92-.81-1.4,1.77-2.64,1.97-4.6,1.77-1.33-.14-2.41-.89-2.48-2.73l.41-3.64c.58.35.89.72,1.38.8Z"/>
  <path class="st115" d="M139.99,157.24l2.92,7.63c-.82-.4-2.11-.13-2.37-2.09-.59-4.52-5.73-3.12-6.47-4.23-2.06-3.08,4.88.5,5.91-1.31Z"/>
  <g>
    <path class="st66" d="M79.1,248.04c-1.53-1.27-1.15-1.91.82-1.34-.73-5.32,5.01-4.11,7.41-.23-.43-3.31-.36-6.62.21-9.91-1.39-2.1-1.19-3.96.58-5.58-2.12-2.33,1.36-5.91,4.14-6.06,1.25-4.68,6.34-11.11,6.9-7.84l-5.78,13.67c-1.43,1.08-1.17,3.36.77,6.83-3.95,8.71,4.22,15.44,12.17,17.08l.88,2.19,1.7-1.78c18.1.79,38.67-22.75,40.21-39.78l1.67-1.66c-.07-.25.09-.57.06-.83l1.22-.45c.61,1.87.96,3.76,1.04,5.68.59,2.24,1.64,3.52,3.14,3.84,1.64-1.58,5.82-2.42,6.85-4.36,1.53-2.89,1.93-5.75,4.87-7.4.97.74,1.65,1.96,1.23,3.28s-2.86.79-3.47,3.25c5.35,1.19,10.9-.8,15.95,2.06,12.27,6.96,10.91,20.3,5.99,31.92-4.36,10.29-11.46,17.96-19.31,25.76-25.51,25.32-37.16-8.47-40.53,3.65-3.32-1.84-4.47-6.02-6.34-8.99-1.28.17-2.89,1.17-3.76.93-2.67-.72-.41-7.6-4.64-6.73s-4.27-2.21-6.35-3.86c-4.53-3.61-10.46-4.97-14.07-9.43-.74,1.3-1.56,3.14-2.61,2.99-5.93-3.52-3.92-6.71-10.95-6.9Z"/>
    <g>
      <path class="st101" d="M123.01,225.26c-6.44,8.94-18.82,19.86-15.81,31.6-4.74-.78-8.65-2.17-12.56-6.6-8.83-10,1.68-8.51-4.58-17.45.49-2.86,3.18-4.12,4.12-6.72,1.24-3.43,2.15-7.09,4.97-9,1.36,7.96-8.7,13.04-1.48,19.45,1.95,1.74,5.86,6.38,8.82,4.71,4.16-2.35,6.77-7.44,9.7-10.92,2.26-2.68,4.7-3.5,6.81-5.07Z"/>
      <path class="st0" d="M156.25,221.88c-1.5,1.44-2.46,3.7-5.41,4.17.79-3.33,2.52-5.42,2.27-8.01,0-.34-.32-1.78.64-1.38.38,1.99.98,3.76,2.5,5.21Z"/>
      <path class="st53" d="M188.14,231.18c2.03,3.55,1.48,8,.06,12.02-5.2,14.77-15.24,27.66-27.72,36.83-5.11,3.75-10.61,4.28-15.46,2.1-.1-.46-.17-.9-.1-1.33.29-1.81.82.33-.28.26-1.73-.11.14-18.53,5.44-18.08-1.68-3.51,1.31-8.04,3.56-11.06,5.39-7.24,19.76-21.01,28.76-22.12,2.03-.25,4.4-.49,5.74,1.38Z"/>
      <path class="st93" d="M182.01,228.19l-.51,1.55c-11.16,5.07-20.65,12.69-28.49,22.84-3.65.49-8.67-3.3-9.86-6.53-1.77-2.28-1.08-5.21,2.09-8.8-.16-2.81,12.16-14.23,13.99-14.06,4.52.12,8.01.13,12.35-1.66,4.41-.24,11.62,1.58,10.42,6.65Z"/>
      <path class="st55" d="M143.15,246.05l1.11,2.49c-4.24,5.13-4.73,9.04-1.46,11.72,3.01.46,5.43,1.37,7.27,2.71-2.17,5.21-5.03,10.36-3.69,16.99.13.63.4,1.69-.02,1.85-.53.21-1.01.26-1.35.31-4.31-1.93-8.91-3.26-11.6-7.3-7.14-10.72,1.84-30.57,11.82-37.58-.16,2.95-1.19,5.91-2.09,8.8Z"/>
      <path class="st49" d="M186.12,228.17c1.26.84,1.56,2.2,2.02,3-4.2-.03-8.25.14-12.33,2.47-11.95,6.8-20.64,17.1-25.73,29.34-4.39,1.14-11.26-.45-11.57-6.17-.2-3.79,3.62-7.47,4.64-10.75,3.58-.04,6.64,5.57,9.28,4.65,4.1-1.42,13.75-17.92,29.58-22.51.1-3.18,2.97-2.61,4.11-.02Z"/>
      <path class="st70" d="M121.94,267.37c-.88-1.07-2.33.69-3.1,1.33-1.66-10.57-3.8-2.45-5.21-8.43,6.8-2.62,13.27-5.46,17.93-9.9-1.35,5.76-2.92,9.95-3.07,14.68-.12,3.62.85,7-1.77,10.13-2.3-2.49-2.54-5.12-4.77-7.81Z"/>
      <path class="st46" d="M186.12,228.17c-1.29.27-2.84-.35-4.11.02-10.7-11.49-14.14,2.13-22.78-4.99,4.38-2.59,8.77-4.43,13.89-4.26,5.89.19,12.46,3.62,13,9.23Z"/>
    </g>
  </g>
  <path class="st103" d="M48.23,187.1c-.19.73-.55,2.13-.23,2.88.36.85,1.34,1.52,1.09,2.51-.58,2.3-4.33,2.92-4.45,5.09-.05.87,1.03,1.72,1.51,2.5l.19,2.3-10.79,5.06c-2.92,3.79-6.34,6.99-10.26,9.61.85,3.17-1.29,3.56-6.43,1.15-1.77,3.64-5.47,8.16-8.69,3.98-.95-3.03.82-6.12,2.11-9.8l-8,2.58c2.16-5.32,5.48-9.09,10.16-13.1l-8.29-1.1c-.39-.97.19-1.97,1.02-1.67l1.79-1.08c5.2-.03,10.18-1.72,14.95-5.06-2.78.4-5.07.09-6.87-.91l.97-1.68c-1.92-.79-3-1.36-3.9-2.39-.53-2.39,4.61-2.74,6.83-2.21,6.87-2.55,13.5-1.97,20.53-.38,3.2-.5,5.44.07,6.74,1.72Z"/>
  <path class="st29" d="M44.05,212.83c1.2.63,3.42-.15,4.68.95,1.75,1.52-1.62,8.44,2.28,8.41.48,1.91,1.04,3.8,1.05,5.78-.68,1.6-1.98,2.91-3.08,4.11-.57,1.4.08,5.08-2.64,4.63-.9-.15-1.84-1.95-2.64-1.69-2.13.7-3.23,7.68-6.63,7.01-2.26-.45-2.03-4.14-3.85-5.33-2.86,2.08-5.54,5.26-8.26,3.23-.01-.81.13-1.62-.14-3.15-1.24-.02-2.87,1.7-4.41,1.05-1.46-1.48.08-3.74-.62-6.01-3.82,2.12-7.36,3.33-11.29,4.15-.62-2.02,1.37-2.93,1.48-4.08.9,1.11,1.56.8,1.99-.9l5.55-4.97c-2.72-1.96-2.27-4.57,1.34-7.83,1.01-.76,1.64-1.95,2.6-2.77.56,1.05.71,1.84,1.32,2.32.84.67,1.76-.48,2.5-.7,3-1.87,5.47-4.04,7.41-6.51l1.48.35c1.6,1.9,3.3,2.01,5.11.32,3.23-1.15,4.82-.61,4.76,1.63Z"/>
  <path class="st107" d="M48.23,187.1c-12.72,1.8-12.06-3.94-26.43.53-2.2.68-5.77-2.17-7.67.34-.64-.04-1.51.13-1.98-.94,5.95-3.67,12.47-5.15,19.72-5.02-.46-1.62-1.95-2.72-1.06-4.03l10.76,2.87c.29-1.13-.26-2.05.39-2.87,3.47,1.81,5.97,4.12,7.82,7.05.36.87-1.4,1.5-1.55,2.07Z"/>
  <path class="st2" d="M7.18,199.09c2.37-3.37,6.06-5.64,9.87-7.06s7.83-2.27,11.91.36c-5.16,2.84-17.83,10.95-21.78,6.7Z"/>
  <path class="st10" d="M9.98,231.89c.17-1.83,2.02-3.85,1.44-5.71l-1.25-4c3.21.29,6.17-2.1,8.69-3.98l-1.61,5.68c2.42.89,4-1.96,6.24.08-4.55,2.34-15.06,14.92-13.51,7.94Z"/>
  <path class="st99" d="M110.32,12.09l5.03.41,1.6,9.87c3.6-2.8,5.91-5.75,10.51-6.75.98,1.85-.77,3.23,0,5.23,1.05-.67,2.33-2.22,3.65-1.77,3.71,7.57-7.44,19.82-2.76,19.33,2.35-.24,3.89-3.05,7.1-2.42-.47,4.04-1.33,7.61-2.31,11.08-3.35-.19-3.66,3.58-6.04,6.19-.66-2.16-3.69-2.39-4.64-3.33-3.83-3.79.79-7.11-11.49-11.92-.38,1.36.36,2.7-.71,3.02-1.45,1.67-4.73-1.06-5.05-2.88-8.84-11.29-13.45,3.57-10.11,11.9.94.22.91.56,0,1-1.21,1.95-.31,4.22-.67,6.63-.2,1.35-1.74,2.54-2.21,3.62s.81,1.81.75,2.86c7.8,9.05-2.12,10.15-8.35,4.71l-4.25-.29c-1.39-.64-2.71-1.36-4.04-2.11-.99-.55-2.7-1.36-2.26-2.9.92-3.27,6.4-1.07,4.15-5.36-1.97-3.77-2.87-8.06-1.7-12.25,1.31,1.68,1.34,3.69,3.52,2.99l-2.86-5.99c-1.14-2.38,0-5.89.95-8.5,2.02.31,2.42,2.37,3.99,2.21.2-3.34-.73-5.95.79-7.71,1.89.57,2.54,2.38,1.96,5.42,3.3-1.64,4-4.91,2.1-9.82l2.15-1.71c2.63,1.1.49-7.27,6.3-10.54,1.84-1.03,3.57-1.64,4.53-3.17,3.54,1.7,3.26,6.2,5.15,9.98,1.49-2.85,3.01-5.35,5.24-7.04Z"/>
  <path class="st16" d="M194.11,54.11c2.4-.05,5.82-1.07,8.29.36-1.49,3.56-4.91,4.6-5.51,8.1,2.98-.15,6.64.13,8.1,1.61.28,1.92-1.38,3.6-4.97,5.06-3.28,1.94,1.25,3.13,2.38,7.79-.01,1.11.56,2.7.02,3.55-.83,1.3-10.17-.81-5.37,1.41,1.01.82.56,3.28-.41,3.3-4.66.09-9.09-10.94-10.23-15.05-2.06-2.49-2.89-4.82-2.47-6.98,1.25-4.24,2.98-8.5,5.51-12.98,1.95,1.16,1.06,3.3,1.16,5.44,1.47.55,2.62-.96,3.5-1.61Z"/>
  <path class="st84" d="M184.3,25.95c2.67.84,5.34,1.82,8.01,2.94l.58,2.29c-1.32,7.53-4.76,14.65-7.58,21.77-.89.49-1.92.97-2.81.61-.57-.23-6.15-9.42-6.3-10.01-.21-.8.4-1.66.9-2.37-.48-1.17-1.37-2.22-1.61-3.68,1.62-.89,2.63-1.95,3.01-3.42,1.1-4.28-4.26-3.4-4.42-5.86,1.28-2.09,2.61-4.06,4.05-6.08,1.91-2.36,7.12.98,6.17,3.82Z"/>
  <path class="st17" d="M197.06,81.99c.43.19.8.49,1.07.88.1,1.57.03,3.08-1.03,4.26-1.01,1.26-2.38,1.48-4.12.65-1.53.55-3.11,1.67-4.75,3.36,2.1,1.3,1.62,2.61-.98,2.04.11.8.23,1.94-.35,2.34-3.91,2.67-5.33-5.38-3.55-8.35-2.54,4.14-8.01,1.78-4.09-1.03,1.91-12.91-.1-3.57-.85-13.28l.85-2.71c-.15-3.13.8-4.5,2.84-4.1.54-.89,1.27-1.98,1.85-2.79,7.91,8.13,4.5,15.16,11.79,19.25.41,2.14,1.8,1.5,1.33-.52Z"/>
  <path class="st77" d="M183.27,57.9c-.53,2.16-.99,4.34-2.18,6.26-.62,2.46-1.88,2.15-3.8-.93.27.94-7.88-13.16-8.95-11.12.57-.9.73-2.11,1.53-2.9,2.98-5.07,14.39-.43,11.94,5.94,1.44.16,1.65,1.22,1.45,2.75Z"/>
  <path class="st74" d="M200.05,5.04c.05,1-.48,2.13-.28,3.11-.71,3.94-7.87,11.46-11.54,11.46-2.78,0-1.88-7.23-1-9.41-.69.4,4.79-8.49,9.3-7.51,1.16.25,2.48,1.17,3.53,2.34Z"/>
  <path class="st122" d="M195.8,23.86c-.22,1.01-.38,2.04-.69,3.03l-1.58,1.87c-3.2-.47-6.28-1.41-9.24-2.81l-6.17-3.82c1.72-2.42,2.77-4.8,5.09-6.87,2.86-1.64,3.37.8,3.71,3.43,1.93.48,3.93-.07,6.02-1.65,2.8-.55,3.76,1.73,2.86,6.83Z"/>
  <path class="st65" d="M199.77,8.16c.97,4.78-2.87,10.73-3.96,15.7-1.46-.62-1.34-2.11-.3-4.4-3.24-1.13-6.39.01-9.8,2.63.82-3.16-.71-4.86-2.49-6.84,1.59-1.42,1.83-3.79,4-5.04,1.01,1.85,2.57,4.47.43,6.51-.43.41.67,2.36,1.19,1.93,4.1-3.36,6.82-7.77,10.92-10.5Z"/>
  <path class="st85" d="M185.3,52.94c-.65,1.65-1.6,3.24-2.03,4.96-1.06-.51-2.42-.9-3.08-1.75-.85-1.1.52-3.08.48-4.26-2.65-2.77-7.22-3.1-10.8-2.68-.96-.46-1.51-1.12-1.65-1.75s.09-2.39,1-2.34c.68.04,1.21,1.07,2.02,1.43,1.51-2.36,3.68-3.93,5.85-5.39.74,1.79,2.9,3.13,3.55,5.3.91,3,1.97,5.31,4.65,6.47Z"/>
  <path class="st30" d="M195.12,26.89c-.48,1.56-1.05,3.12-2.23,4.28-3.31-.99-6.53-2.52-8.59-5.23.11-1.65,8.73,1.34,10.82.94Z"/>
  <path class="st26" d="M181.1,64.16c.11.73.46,1.38,1.01,1.88-1.34,2.23-1.32,5.6-3.7,6.81-.24-3.05-.27-6.65-1.11-9.62.2-.25.28-.7.49-.9,1.17,1.3,2.19,1.6,3.3,1.82Z"/>
  <path class="st83" d="M89.11,22.86c-1,5.99,3.38,8.41-1.37,11.85-1.49,1.08-2.62,2.5-2.56,3.8.07,1.6,1.24,2.64,1.18,5.01-4.12,1.02-3.53-12.17-3.46-14.55.12-4.15,1.62-8.49,3.53-12.18,2.04,2.31,1.91,4.36,2.69,6.07Z"/>
  <path class="st34" d="M216.27,140.96c1.96,2.38,1.06,5.68.51,9.05-2.71.71-4.89-.45-7.62-.76-.12,4.08.65,8.5-2.53,11.42-1.05.97-3.22-1.84-4.13-2.2-1.68,2.79-2.67,6.8-6.2,6.68-1.12-.04-2.5-1.72-3.07-1.14-.86.88-.81,2.16-1.07,3.1-.31.4-.74.71-1.02,1.13-1.52,1.26-2.95,2.44-4.29,3.54-1.82-3.17-4.03-4.36-6.64-3.57-1.02,1.09-3.15,1.55-4.18,2.21-1.35.87-7.27-3.52-12.77-2.36-1.53.52-1.96-2.51-3.15-2.6-2.62-.2-4.6,2.38-7.19,2.63-1.92.19-2.06-1.79-1.94-3,.16-1.69-1.54-2.73-2.18-4.37s1.1-3.34-.46-4.6c-2.07,1.07-4.48,3.3-6.07,1.74-1.83-1.79,0-4.66.96-7.09l-5.89-1.12c-.65-1.07.52-2.89.7-3.81.77-3.35,1.04-6.61.82-9.79-.7-.9-1.08-2.22-1.87-3.02l15.22,2.29c-3.17,2.86-6.42,4.48-7.69,9.03,1.31-.06,3.21-.93,4.18.23-5.64,6.79,9.97-3.49,12.55-.12-1.23,2.88-3.51,3.03-4.25,5.46,2.28-.09,4.21.17,4.52,2.78l3.17-2.33c.04,1.85-1.1,3.26.06,4.78l4.42-5.23c1.11.77.93,2.04,1.77,2.92,1.05-.73,2.12-1.29,2.78-.84,1.14.78,1.27,1.93,2.07,3.03,1.79-1.31,1.88-3.5,3.62-4.45,1.11-.6,2.66,1.45,3.69,1.13,2.12-.67,3.93-3.83,6.32-2.85,1.37,1-.15,3.64.35,5.06,5.22-5.01,6.52-.5,4.92-4.47-.68-1.69-.9-2.71.6-3.56,1.41-.8,1.52-.69,2.84,1.56.8,1.36,2.89-.61,4-.89,1.7-.43.87-3.62,1.58-5.03,9.43,7.6,7.27-.97,11.73,3.2.66-1.25.82-2.44.82-3.76Z"/>
  <path class="st97" d="M200.03,69.24c.14-2.69,3.25-3.3,4.97-5.06.74.74,4.15.77,2.8,2.5-1.69,2.16-5.46,2.04-7.77,2.56Z"/>
  <path class="st78" d="M177.13,174.03l2.19-.16c1.95,3.78,4.2,3.8,6.74.05.04-2.74,2.04-2.84,3.94-1.09,1.26,1.71,1.48,4.68.9,7.13-2.03,8.66-9.69,14.85-18.28,15.21-.61-2.9-.86-5.24-2.39-6.88-3.86-4.13,5.65-1.92-1.52-17.34,2.19-1.31,4,3.9,6.08,4.34.69.15,1.79-.64,2.34-1.27Z"/>
  <path class="st67" d="M191.15,168.24c-1.07,1.67-2.4,2.88-1.15,4.59-1.28.48-2.57,1-3.94,1.09-2.56.32-4.23-2.74-5.09-4.84-.32-.02-.59-.63-.74-.87,1.36-1.46,1.94-3.86,4.09-4.86.81,2.79.84,5.06,2.68,6.86,1.45-1.41,2.68-2.28,4.16-1.97Z"/>
  <path class="st56" d="M194.11,90.91l.07,3.23.23,1.1c-.1,2.39-3.4,2.8-4.2,4.77-2.2,2.96-5.89-.13-2.65-2.34,1.42-1.71,2.24-3.65,2.46-5.8-2.26-3.62,4.22-5.95,4.1-.95Z"/>
  <path class="st62" d="M86.27,74.37c-5.13-1.69.73-2.71-5.91-5.79,6.28-5.1,6.93,2.53,13.63,2.65-.08-2.88-1.17-4.81-1.03-7.07,1.7.73,14.88,8.58,9.62,10.75-3.38,1.4,2.95-4.52-12.2-1.58-1.59.31-3.24-.38-4.11,1.04Z"/>
  <path class="st3" d="M197.1,87.13c-1.03,1.16-1.55,3.04-2.99,3.78-.72-.26-1.77-.89-2.55-.88-1.07.02-1.99.69-1.55,1.83-1.11,2.38-1.81,1.87-1.78-.73.83-1.72.99-4.32,2.73-5.02,2.21-.9,4.33.22,6.15,1.02Z"/>
  <path class="st117" d="M143.15,95.15c1.35.19,2.39,1.36,3.12,3.53,1.81-.15,3.1.33,3.87,1.45,1.16.52,1.99,1.57,2.12,2.51.5,3.62-4.1,4.59-2.39,6.05-2.64.07-4.66.07-6,1.53-1.91,1.31-2.71.27-3.75-.33.35-.07.86.18,1.75-.38-3.91-3.21-3.99-11.62-1.5-13.68.63-.52,1.98-.25,2.78-.67Z"/>
  <path class="st15" d="M187.25,93.18c3.23-.26,3.04,3.92.29,4.49-.41,1.61,1.58,1.79,2.65,2.34-1.21,2.96-3.7,5.23-6.45,7.02-.17-1.56-.5-3.35-1.38-4.51-.53-.7-1.79.27-3.22-.42-.15-1.78-1.82-5.6-3.3-4.8-2.49,1.33-2.15,4.5-3.35,6.75-2.13-1.47-3.3-3.86-4.22-6.09,2.2-3.95-2.27-12.68,3.66-19.69,1.28,1.59,1.25,3.84,2.71,5.34.69.7,2.58-.73,3.01.24s1.02,1.6,1.59,2.29c.23.27-.04.93.16,1.23.26.39.69.46,1.03.32.45-.19.52-.92.79-1.19,5.54-5.44-5.42-6.82,3.89-11.71,3.79,9.49-4.77,22.13,2.12,18.39Z"/>
  <path class="st1" d="M109.92,48.35c1.6-2.11,6.11-1.06,6.27,1.69,1.57,1.13,2.11,3.72,2.83,5.72l2.98,8.29c.73,4.41-.82,11.15-5.8,11.03-.73-2.27,2.18-3.06,3.14-4.96,2.48-4.92-.58-10.37-3.28-14.27-3.06-1.51-7.03-4.58-9.19-7.31-.73-.92,2.53-2.8,3.04-.19Z"/>
  <path class="st108" d="M105.21,38.15c1.82.61,3.09,2.5,5.05,2.88l1.63,2.84c.02,2.62-.86,2.51-1.97.17-1.89.84-4.08.07-6.57-2.32-3.39-1.12-4.84,1.66-4.35,8.36-.48,2.26-.96,3.75-3.06,2-.14-.42-.56-.72-.84-1.04.14-.22.01-.73,0-1-2.22-4.91-1.75-15.39,4.96-15.61,1.34-.04,5.82,1.87,5.15,3.71Z"/>
  <path class="st124" d="M111.89,43.87c1.57.46,3.08,1.2,4.24,2.59.72.86,1.67,2.72.06,3.58-2.09-.26-4.33-.64-6.27-1.69-3.99,1.13-4.04-5.53,0-4.3.62.11,1.38-.35,1.97-.17Z"/>
  <path class="st121" d="M109.92,44.04c-1.48.97-.91,3.04,0,4.3-.61.03-1.26-.08-1.84.28,3.22,2.65,8.91,4.14,7.98,7.23-1.74.44-3.63.35-5.05-.82-1.47-2.54-4.68-6.41-7.61-6.94-2.88.83-3.25,5.17-4.56,7.5-1.53-.57-2.4-2.08-2.89-3.5,2.38.99-.64-10.94,4.45-12.55,3.62-1.15,6.99,2.72,9.52,4.51Z"/>
  <path class="st43" d="M138.88,136.04c1.25.67,2.43,1.72,3.81,2.74-2.57,2.13-3.96,4.36-4.63,7.05-1.25-1.69-.29-3.71.03-5.97.28-1.97-2.03-2.25-3.18-3.83,1.15-.27,3.03-.49,3.97,0Z"/>
  <path class="st21" d="M45.28,207.32c-1.32,4.4-7.43,4.94-11.1,3.56-1.24.97-.99,3.27-1.97,4.15l-6.92,2.01c1.36-2.97,4.27-4.82,6.14-8.07,3.11-5.4,10.19-5.46,14.73-8.9h1.08c1.57,2.57-.12,5.18-1.96,7.24Z"/>
  <path class="st41" d="M44.05,212.83c-2.82-1.47-5.41.97-8.21,3.01-1.14-1.34-1.7-3.25-1.66-4.96,4.46-3.49,4.12.95,11.1-3.56-.19,1.88-.8,3.67-1.23,5.51Z"/>
  <path class="st68" d="M186.06,173.92c.87,1.31.43,2.61-.36,3.24-1.3,1.03-2.59,2.43-4.12,1.57-2.1-1.17-3.58-2.92-4.44-4.69,1.39-1.56,2.76-3.16,3.83-4.95,2.86-.12,4.05,2.48,5.09,4.84Z"/>
  <path class="st63" d="M105.21,38.15l-6.33-2.13c-4.21,3.71-3.97,9-3.77,14.02l-2.79-5.04c.67-3.77.62-8.79,3.54-12.2,1.45-1.7,9.17.66,10.03,2.87.29.74-.1,1.74-.67,2.48Z"/>
  <path class="st59" d="M190.01,91.87c1,1.2,1.8,2.64,1.21,3.94-.74,1.64-2.06,2.42-3.68,1.87.38-1.5.28-3.04-.29-4.49l.98-2.04c.43.41,1.42.3,1.78.73Z"/>
  <g>
    <path class="st35" d="M210.21,106.09c-.37.48-2.07.92-2.15,2.02,3.86,3.58,8.58,5.37,12.89,7.64-.61,2.95-3.76,2.86-7.24,3.72,1.93,2.56,3.44,3.91,3.54,6.38-1.78,1.14-3.64,2.35-5.59,3.64,3.03,2.57,4.22,5.09,3.55,7.54.83,1.02.32,3.03,1.07,3.93.98,3.16.64,6.43-2.93,4.56-2.34,1.49-5.08,1.53-8.22.13-1.3,3.13-5.63,5.37-8.55,3.07,1.66,4.88-9.8,9.69-8.7,2.19-2.5,2.07-4.69,3.79-7.91,1.77-1.45,2.93-3.33,5.25-6.37,2.54-2.07-2.18-4.96-1.75-8.66,1.29-2.84-2.43-5.86-4.38-9.07-5.85l-.31-1.65c2.8-3.25.88-3.37-5.78-.37-8.07-1.12-8.56-7.39-2.36-11.92-4.09-.18-7.56-1.42-10.41-3.7-.62-.45-2.86-1.45-1.5-2.47,1.68-1.26,3.55-1.42,4.7-2.68l.95-3.64c1.4-1.44,3.2-1.55,5.63-1.63-1.28-1.72-3.08-1.78-4.98-3.54,2.82-1.69,5.52-1.6,8.12-2.56-2.05-2.77-5.3-3.53-6.06-6.29l12.14-.2c.29-1.96-.07-3.45-.11-4.93l4.11-1c2.61,2.14,4.28,2.42,4.99.84-.11-2.88-.87-5.89,0-8.62.9.36,2.84.57,3.29,1.65l3.23,2.07c2.23-5.97,6.98-6.43,9.14-.26,2.17.55,3.6,1.67,4.29,3.36,1.76-1.88,3.51-2.92,5.26-3.13-1.36-1.13,2.4-4.71,4.2-4.77,1.32,0,2.4-1.15,4.2-.66-.29,3.02-1.59,4.7-1.31,7.28,5.31-1.61,10.66-2,15.84.26-1.16,1.62-2.36,2.58-2.93,3.96Z"/>
    <g>
      <path class="st50" d="M201.1,93.04v3l-.29,2.36,9.29.64c1.4.76,5.29-.7,5.99,2.04.5,1.95-2.32,3.57-3.09,4.72,0,3.22-2.25,3.52-2.79.29-.8-3.57-1.24-3.61-4.93-3.55-8.15,1.96-11.26.27-9.35-5.07l-1.52-2.23c-.92-.14-.98-.51-.23-1.1,1.44-4.78,4.91-6.54,6.93-1.1Z"/>
      <path class="st61" d="M213,105.79c2,7.68,6.38,5.01,9.11,9.25-.29.15-1.07.3-1.15.7-2.68,2.63-13.79-4.64-14.46-6.98-.76-2.63,1.66-4.88,3.71-2.68.38.3,2.4.29,2.79-.29Z"/>
      <path class="st71" d="M217.25,125.84c.1,2.51,2.67,4.32,3.83,6.36.18,6.23-4.74.12-5.87,4.82l-6.99-8.61c6.51-1.16,4.98-5.22,9.04-2.58Z"/>
      <path class="st109" d="M196.11,129.18c-2.49-2.92,1.93-5.97,4.68-7.23.35-.16.85,0,1.38.24,1.56,5.4-.86,10.34-4.29,14.56-.97-2.55-1.44-5-1.77-7.58Z"/>
      <path class="st4" d="M171.13,144.96l-7.76.04c-1.54-3.47.08-7.61,3.44-8.92.95,2.26-.25,5.32,1.47,6.62,2.13,1.6,4.84-.28,6.94-.37-.21,3.34-2.78,2.17-4.1,2.64Z"/>
      <path class="st76" d="M202.17,122.2c-3.86,7.32-6.59.99-6.06,6.98-1.22-1.65-2.03-3.17-1.89-4.63.3-3.18,5.43-1.79,5.18-3.69-.03-.25-.61-1.26-.09-1.54,2.31-1.25,2.52,1.66,2.87,2.87Z"/>
      <path class="st58" d="M171.13,144.96c-3.3,1.16-6.53,3.48-7.76.04.05-.38-.01-.86.13-1.24.49-1.33,10.39,1.32,7.63,1.2Z"/>
    </g>
  </g>
  <path class="st31" d="M150.14,100.13c-1.51.58-3.45,1.17-4.93.21-1.63-1.06-2.04-3.34-2.05-5.19,1.89-1.16,4.25-2.14,6.45-.21,1.21,1.06,1.19,3.32.54,5.19Z"/>
  <g>
    <path class="st105" d="M154.24,56.05c-.55.23-1.02.38-1.19.21-1.13-1.09.11-3.15.35,1.02-1.25,4.55-1.35,8.47-.29,11.77,4.13.71,9.97,7.31,6.2,11.27,1.5,1.42,2.12,3.01,1.86,4.77,2.79-1.2,4.39.6,4.79,5.38,2.89,1.68,3.09,6.81-.95,5.84,2.23,1.28,2.86,8.02,0,8.62-.4,1.76-1.98,1.52-4.73-.72l-4.37.88c2,.09,2.26,1.11,2.21,2.91-.16,5.79-10.55,5.11-14.24,2.22-.93-3.78,4.18-4.71,6-1.53,4.47-2.3,4.51-6.08,2.88-11.02-1.74-5.29-5.89-6.97-10.78-4.71-7.33,3.39-5.34,11.67-1.86,16.93l1.28.2c.36-1.64,1.18-1.6,2.47.12,6.09,1.81,11.57,7.21,2.46,9.35,4.35,3.78-1.22,6.59-5.17,4.66,1.53,1.88-1.09,2.92-3.02,2.8-.2,1.76-.94,1.74-1.4-.05-1.35-3.08-3.1-6.16-6.63-6.72-1.26-2.57-1.23-4.65.09-6.25,3.3.75,6.84.41,10.39.51l-6.48-6.41c-2.35-2.32.15-17.29.05-17.09,1.28-2.57,3.08-4.14,1.89-7.76l3.99,3.36c.94.79,2.36-1.25,3.56-.92s2.08,1.73,3.07,1.55c3.12-.56-.09-5.53,2.28-6.76.71-.37,1.73-.08,3.35-1.21-5.57-5.54-7.99-14.36-4.8-22.12,1.03-2.51,5.41-3.83,5.68-6.9,1.67,2.3.73,4.03,1.06,5.77Z"/>
    <g>
      <path class="st40" d="M154.24,56.05c.07.36.21.79.16,1.16,1.58,2.45,1.56,3.99-.05,4.59,1.09,3.39.67,5.81-1.24,7.25-4.06,1.14.17-8.37-.87-15.09,1.2.5.99,1.92,2,2.09Z"/>
      <path class="st60" d="M149.86,108.69c-2.81-.16-2.69-1.81.35-4.96-.17-1.22-.19-2.42-.08-3.59-1.01-.8-1.75-2.13-2.22-3.98-1.94.08-3.53-.25-4.77-1l-2.47,5.7.36,3.33c2.81,5.1,2.5,7-.92,5.7-4.29-2.46-5.57-7.35-4.44-11.6,1.01-3.8,3.93-7.47,8.43-8.09,4.18-.57,7.57,1.81,9.26,4.24,3.73,5.37,1.05,14.08.12,14.45-1.38.54-2.56-.23-3.62-.2Z"/>
      <path class="st7" d="M156.91,64.06c-4.25.42,8.5,11.85,8.09,16.65-.96,1.54-4.2,2.4-3.84,4.39-1.64-.89-2.71-2.36-3.58-3.96s1.47-3.23,1.32-4.52c-1.77-2.89-4.99-4.64-5.79-7.57.08-2.51-.77-5.37,1.24-7.25,1.54-.16,1.81,1.38,2.56,2.26Z"/>
      <path class="st54" d="M165,104.92c.16,1.33,2.76,2.81,1.6,5.19-4.66-1.22-4.77-5.77-10.7-5.03,1.32-.59,3.08-2.7,4.61-2.34,1.78.42,2.93,2.11,4.49,2.18Z"/>
      <path class="st20" d="M157.2,89.59c-3.9.45-7.82-2.95-7.02-7.21,3.44.47,5.48,3.51,7.02,7.21Z"/>
      <path class="st42" d="M141.16,124.22c.57.9,1.6,1.24,2.97,2.3-.96,1.14-2.91.57-3.92,1.34-.75-.11-1.5-.33-2.08-.84.79-1.16,2.09-1.84,3.02-2.8Z"/>
    </g>
  </g>
</svg>